<mxfile host="app.diagrams.net" modified="2021-08-31T13:02:17.210Z" agent="5.0 (Windows NT 10.0; Win64; x64) AppleWebKit/537.36 (KHTML, like Gecko) Chrome/92.0.4515.159 Safari/537.36" etag="zw22R8dp2aaXYl1GDue1" version="15.0.3" type="github" pages="3">
  <diagram id="_1Wtow-dw4-1ti9XIvQA" name="Page-1">
    <mxGraphModel dx="1235" dy="229" grid="1" gridSize="10" guides="1" tooltips="1" connect="1" arrows="1" fold="1" page="1" pageScale="1" pageWidth="827" pageHeight="1169" math="1" shadow="0">
      <root>
        <mxCell id="0" />
        <mxCell id="1" parent="0" />
        <mxCell id="E4blvEDHZqpK1_lMUiRl-31" value="" style="whiteSpace=wrap;html=1;aspect=fixed;shadow=0;strokeColor=#FFFFFF;fillColor=#CCCCCC;" parent="1" vertex="1">
          <mxGeometry x="-210" y="41.5" width="40" height="40" as="geometry" />
        </mxCell>
        <mxCell id="TgXw0Lu5bYYEqpKtV-oY-33" value="" style="whiteSpace=wrap;html=1;aspect=fixed;shadow=0;fillColor=#CCCCCC;strokeColor=#CCCCCC;" parent="1" vertex="1">
          <mxGeometry x="-250" y="120" width="40" height="40" as="geometry" />
        </mxCell>
        <mxCell id="TgXw0Lu5bYYEqpKtV-oY-42" value="" style="whiteSpace=wrap;html=1;aspect=fixed;shadow=0;strokeColor=#CCCCCC;fillColor=#CCCCCC;" parent="1" vertex="1">
          <mxGeometry x="-210" y="80.5" width="40" height="40" as="geometry" />
        </mxCell>
        <mxCell id="E4blvEDHZqpK1_lMUiRl-22" value="" style="ellipse;whiteSpace=wrap;html=1;aspect=fixed;shadow=0;strokeColor=#0000FF;fillColor=#FFFFFF;" parent="1" vertex="1">
          <mxGeometry x="-288" y="41.30000000000001" width="116" height="116" as="geometry" />
        </mxCell>
        <mxCell id="dBrtnQbdnbP_hNXoyty3-11" value="" style="whiteSpace=wrap;html=1;aspect=fixed;fillColor=#CCE5FF;strokeColor=#FFFFFF;shadow=0;" parent="1" vertex="1">
          <mxGeometry x="-258" y="199.3" width="20" height="20" as="geometry" />
        </mxCell>
        <mxCell id="dBrtnQbdnbP_hNXoyty3-6" value="" style="rounded=0;whiteSpace=wrap;html=1;fillColor=#EBEBEB;strokeColor=#E8E8E8;" parent="1" vertex="1">
          <mxGeometry x="-491" y="101.04" width="30" height="138.92" as="geometry" />
        </mxCell>
        <mxCell id="dBrtnQbdnbP_hNXoyty3-5" value="" style="rounded=0;whiteSpace=wrap;html=1;fillColor=#EBEBEB;strokeColor=#E8E8E8;" parent="1" vertex="1">
          <mxGeometry x="-639" y="71" width="30" height="199" as="geometry" />
        </mxCell>
        <mxCell id="SOsMVHl4s7LR2z6pSPWi-3" value="" style="endArrow=none;html=1;" parent="1" edge="1">
          <mxGeometry width="50" height="50" relative="1" as="geometry">
            <mxPoint x="-639" y="270" as="sourcePoint" />
            <mxPoint x="-639" y="50" as="targetPoint" />
          </mxGeometry>
        </mxCell>
        <mxCell id="SOsMVHl4s7LR2z6pSPWi-4" value="" style="endArrow=none;html=1;" parent="1" edge="1">
          <mxGeometry width="50" height="50" relative="1" as="geometry">
            <mxPoint x="-639" y="50" as="sourcePoint" />
            <mxPoint x="-529" y="50" as="targetPoint" />
          </mxGeometry>
        </mxCell>
        <mxCell id="SOsMVHl4s7LR2z6pSPWi-5" value="" style="endArrow=none;html=1;" parent="1" edge="1">
          <mxGeometry width="50" height="50" relative="1" as="geometry">
            <mxPoint x="-639" y="71" as="sourcePoint" />
            <mxPoint x="-529" y="71" as="targetPoint" />
          </mxGeometry>
        </mxCell>
        <mxCell id="SOsMVHl4s7LR2z6pSPWi-6" value="" style="endArrow=none;html=1;" parent="1" edge="1">
          <mxGeometry width="50" height="50" relative="1" as="geometry">
            <mxPoint x="-529" y="270" as="sourcePoint" />
            <mxPoint x="-529" y="50" as="targetPoint" />
          </mxGeometry>
        </mxCell>
        <mxCell id="SOsMVHl4s7LR2z6pSPWi-7" value="" style="endArrow=none;html=1;" parent="1" edge="1">
          <mxGeometry width="50" height="50" relative="1" as="geometry">
            <mxPoint x="-608" y="270" as="sourcePoint" />
            <mxPoint x="-608" y="50" as="targetPoint" />
          </mxGeometry>
        </mxCell>
        <mxCell id="SOsMVHl4s7LR2z6pSPWi-8" value="" style="endArrow=none;html=1;exitX=0.984;exitY=1.036;exitDx=0;exitDy=0;exitPerimeter=0;" parent="1" edge="1">
          <mxGeometry width="50" height="50" relative="1" as="geometry">
            <mxPoint x="-561.48" y="270.72" as="sourcePoint" />
            <mxPoint x="-562" y="50" as="targetPoint" />
          </mxGeometry>
        </mxCell>
        <mxCell id="SOsMVHl4s7LR2z6pSPWi-9" value="&lt;font style=&quot;font-size: 12px&quot; face=&quot;Times New Roman&quot;&gt;ID&lt;/font&gt;" style="text;html=1;align=center;verticalAlign=middle;resizable=0;points=[];autosize=1;strokeColor=none;" parent="1" vertex="1">
          <mxGeometry x="-638" y="51" width="30" height="20" as="geometry" />
        </mxCell>
        <mxCell id="SOsMVHl4s7LR2z6pSPWi-11" value="&lt;font style=&quot;font-size: 14px&quot; face=&quot;Times New Roman&quot;&gt;count&lt;/font&gt;" style="text;html=1;align=center;verticalAlign=middle;resizable=0;points=[];autosize=1;strokeColor=none;" parent="1" vertex="1">
          <mxGeometry x="-571" y="50" width="50" height="20" as="geometry" />
        </mxCell>
        <mxCell id="SOsMVHl4s7LR2z6pSPWi-14" value="" style="endArrow=none;html=1;" parent="1" edge="1">
          <mxGeometry width="50" height="50" relative="1" as="geometry">
            <mxPoint x="-639" y="169.76" as="sourcePoint" />
            <mxPoint x="-529" y="169.76" as="targetPoint" />
          </mxGeometry>
        </mxCell>
        <mxCell id="SOsMVHl4s7LR2z6pSPWi-15" value="&lt;font face=&quot;Times New Roman&quot;&gt;&lt;span style=&quot;font-size: 12px&quot;&gt;&lt;i&gt;P&lt;/i&gt;&lt;/span&gt;&lt;sub&gt;&lt;font style=&quot;font-size: 8px&quot;&gt;1&lt;br&gt;228&lt;br&gt;&lt;/font&gt;&lt;/sub&gt;&lt;/font&gt;" style="text;html=1;align=center;verticalAlign=middle;resizable=0;points=[];autosize=1;strokeColor=none;" parent="1" vertex="1">
          <mxGeometry x="-638" y="101" width="30" height="40" as="geometry" />
        </mxCell>
        <mxCell id="SOsMVHl4s7LR2z6pSPWi-18" value="" style="endArrow=none;html=1;" parent="1" edge="1">
          <mxGeometry width="50" height="50" relative="1" as="geometry">
            <mxPoint x="-608" y="90" as="sourcePoint" />
            <mxPoint x="-529" y="90" as="targetPoint" />
          </mxGeometry>
        </mxCell>
        <mxCell id="SOsMVHl4s7LR2z6pSPWi-19" value="" style="endArrow=none;html=1;" parent="1" edge="1">
          <mxGeometry width="50" height="50" relative="1" as="geometry">
            <mxPoint x="-608" y="109.75999999999995" as="sourcePoint" />
            <mxPoint x="-529" y="109.75999999999995" as="targetPoint" />
          </mxGeometry>
        </mxCell>
        <mxCell id="SOsMVHl4s7LR2z6pSPWi-20" value="" style="endArrow=none;html=1;" parent="1" edge="1">
          <mxGeometry width="50" height="50" relative="1" as="geometry">
            <mxPoint x="-608" y="129.99999999999994" as="sourcePoint" />
            <mxPoint x="-529" y="129.99999999999994" as="targetPoint" />
          </mxGeometry>
        </mxCell>
        <mxCell id="SOsMVHl4s7LR2z6pSPWi-25" value="&lt;font face=&quot;Times New Roman&quot;&gt;2&lt;/font&gt;" style="text;html=1;align=center;verticalAlign=middle;resizable=0;points=[];autosize=1;strokeColor=none;" parent="1" vertex="1">
          <mxGeometry x="-556" y="70" width="20" height="20" as="geometry" />
        </mxCell>
        <mxCell id="SOsMVHl4s7LR2z6pSPWi-26" value="&lt;font face=&quot;Times New Roman&quot;&gt;3&lt;/font&gt;" style="text;html=1;align=center;verticalAlign=middle;resizable=0;points=[];autosize=1;strokeColor=none;" parent="1" vertex="1">
          <mxGeometry x="-556" y="90" width="20" height="20" as="geometry" />
        </mxCell>
        <mxCell id="SOsMVHl4s7LR2z6pSPWi-27" value="&lt;font face=&quot;Times New Roman&quot;&gt;6&lt;/font&gt;" style="text;html=1;align=center;verticalAlign=middle;resizable=0;points=[];autosize=1;strokeColor=none;" parent="1" vertex="1">
          <mxGeometry x="-556" y="110" width="20" height="20" as="geometry" />
        </mxCell>
        <mxCell id="SOsMVHl4s7LR2z6pSPWi-28" value="&lt;font face=&quot;Times New Roman&quot;&gt;63&lt;/font&gt;" style="text;html=1;align=center;verticalAlign=middle;resizable=0;points=[];autosize=1;strokeColor=none;" parent="1" vertex="1">
          <mxGeometry x="-561" y="130" width="30" height="20" as="geometry" />
        </mxCell>
        <mxCell id="SOsMVHl4s7LR2z6pSPWi-30" value="" style="endArrow=none;html=1;" parent="1" edge="1">
          <mxGeometry width="50" height="50" relative="1" as="geometry">
            <mxPoint x="-639" y="210" as="sourcePoint" />
            <mxPoint x="-529" y="210" as="targetPoint" />
          </mxGeometry>
        </mxCell>
        <mxCell id="SOsMVHl4s7LR2z6pSPWi-31" value="&lt;font style=&quot;font-size: 12px&quot; face=&quot;Times New Roman&quot;&gt;&lt;i&gt;P&lt;/i&gt;&lt;sub&gt;2&lt;br&gt;56&lt;br&gt;&lt;/sub&gt;&lt;/font&gt;" style="text;html=1;align=center;verticalAlign=middle;resizable=0;points=[];autosize=1;strokeColor=none;" parent="1" vertex="1">
          <mxGeometry x="-640" y="171" width="30" height="40" as="geometry" />
        </mxCell>
        <mxCell id="SOsMVHl4s7LR2z6pSPWi-32" value="" style="endArrow=none;html=1;" parent="1" edge="1">
          <mxGeometry width="50" height="50" relative="1" as="geometry">
            <mxPoint x="-608" y="149.51999999999998" as="sourcePoint" />
            <mxPoint x="-529" y="149.51999999999998" as="targetPoint" />
          </mxGeometry>
        </mxCell>
        <mxCell id="SOsMVHl4s7LR2z6pSPWi-36" value="&lt;font face=&quot;Times New Roman&quot;&gt;154&lt;/font&gt;" style="text;html=1;align=center;verticalAlign=middle;resizable=0;points=[];autosize=1;strokeColor=none;" parent="1" vertex="1">
          <mxGeometry x="-561" y="150" width="30" height="20" as="geometry" />
        </mxCell>
        <mxCell id="SOsMVHl4s7LR2z6pSPWi-37" value="" style="endArrow=none;html=1;" parent="1" edge="1">
          <mxGeometry width="50" height="50" relative="1" as="geometry">
            <mxPoint x="-608" y="189.76" as="sourcePoint" />
            <mxPoint x="-529" y="189.76" as="targetPoint" />
          </mxGeometry>
        </mxCell>
        <mxCell id="SOsMVHl4s7LR2z6pSPWi-42" value="&lt;font face=&quot;Times New Roman&quot;&gt;38&lt;/font&gt;" style="text;html=1;align=center;verticalAlign=middle;resizable=0;points=[];autosize=1;strokeColor=none;" parent="1" vertex="1">
          <mxGeometry x="-561" y="170" width="30" height="20" as="geometry" />
        </mxCell>
        <mxCell id="SOsMVHl4s7LR2z6pSPWi-43" value="&lt;font face=&quot;Times New Roman&quot;&gt;18&lt;/font&gt;" style="text;html=1;align=center;verticalAlign=middle;resizable=0;points=[];autosize=1;strokeColor=none;" parent="1" vertex="1">
          <mxGeometry x="-561" y="190" width="30" height="20" as="geometry" />
        </mxCell>
        <mxCell id="SOsMVHl4s7LR2z6pSPWi-44" value="" style="endArrow=none;html=1;" parent="1" edge="1">
          <mxGeometry width="50" height="50" relative="1" as="geometry">
            <mxPoint x="-639" y="270" as="sourcePoint" />
            <mxPoint x="-529" y="270" as="targetPoint" />
          </mxGeometry>
        </mxCell>
        <mxCell id="SOsMVHl4s7LR2z6pSPWi-45" value="&lt;font style=&quot;font-size: 12px&quot; face=&quot;Times New Roman&quot;&gt;&lt;i&gt;P&lt;/i&gt;&lt;sub&gt;3&lt;br&gt;16&lt;br&gt;&lt;/sub&gt;&lt;/font&gt;" style="text;html=1;align=center;verticalAlign=middle;resizable=0;points=[];autosize=1;strokeColor=none;" parent="1" vertex="1">
          <mxGeometry x="-640" y="220" width="30" height="40" as="geometry" />
        </mxCell>
        <mxCell id="SOsMVHl4s7LR2z6pSPWi-46" value="" style="endArrow=none;html=1;" parent="1" edge="1">
          <mxGeometry width="50" height="50" relative="1" as="geometry">
            <mxPoint x="-608" y="230" as="sourcePoint" />
            <mxPoint x="-529" y="230" as="targetPoint" />
          </mxGeometry>
        </mxCell>
        <mxCell id="SOsMVHl4s7LR2z6pSPWi-47" value="" style="endArrow=none;html=1;" parent="1" edge="1">
          <mxGeometry width="50" height="50" relative="1" as="geometry">
            <mxPoint x="-608" y="250" as="sourcePoint" />
            <mxPoint x="-529" y="250" as="targetPoint" />
          </mxGeometry>
        </mxCell>
        <mxCell id="SOsMVHl4s7LR2z6pSPWi-52" value="&lt;font face=&quot;Times New Roman&quot;&gt;11&lt;/font&gt;" style="text;html=1;align=center;verticalAlign=middle;resizable=0;points=[];autosize=1;strokeColor=none;" parent="1" vertex="1">
          <mxGeometry x="-561" y="210" width="30" height="20" as="geometry" />
        </mxCell>
        <mxCell id="SOsMVHl4s7LR2z6pSPWi-53" value="&lt;font face=&quot;Times New Roman&quot;&gt;3&lt;/font&gt;" style="text;html=1;align=center;verticalAlign=middle;resizable=0;points=[];autosize=1;strokeColor=none;" parent="1" vertex="1">
          <mxGeometry x="-556" y="230" width="20" height="20" as="geometry" />
        </mxCell>
        <mxCell id="SOsMVHl4s7LR2z6pSPWi-54" value="&lt;font face=&quot;Times New Roman&quot;&gt;2&lt;/font&gt;" style="text;html=1;align=center;verticalAlign=middle;resizable=0;points=[];autosize=1;strokeColor=none;" parent="1" vertex="1">
          <mxGeometry x="-556" y="250" width="20" height="20" as="geometry" />
        </mxCell>
        <mxCell id="SOsMVHl4s7LR2z6pSPWi-56" value="" style="endArrow=none;html=1;" parent="1" edge="1">
          <mxGeometry width="50" height="50" relative="1" as="geometry">
            <mxPoint x="-493" y="79" as="sourcePoint" />
            <mxPoint x="-371" y="79.3" as="targetPoint" />
          </mxGeometry>
        </mxCell>
        <mxCell id="SOsMVHl4s7LR2z6pSPWi-57" value="" style="endArrow=none;html=1;exitX=-0.038;exitY=1.04;exitDx=0;exitDy=0;exitPerimeter=0;" parent="1" edge="1" source="SOsMVHl4s7LR2z6pSPWi-61">
          <mxGeometry width="50" height="50" relative="1" as="geometry">
            <mxPoint x="-478" y="100.3" as="sourcePoint" />
            <mxPoint x="-368" y="100.3" as="targetPoint" />
          </mxGeometry>
        </mxCell>
        <mxCell id="SOsMVHl4s7LR2z6pSPWi-59" value="" style="endArrow=none;html=1;exitX=0.075;exitY=1.064;exitDx=0;exitDy=0;exitPerimeter=0;" parent="1" edge="1">
          <mxGeometry width="50" height="50" relative="1" as="geometry">
            <mxPoint x="-460.7500000000001" y="240.57999999999993" as="sourcePoint" />
            <mxPoint x="-461" y="79.3" as="targetPoint" />
          </mxGeometry>
        </mxCell>
        <mxCell id="SOsMVHl4s7LR2z6pSPWi-60" value="" style="endArrow=none;html=1;exitX=1.013;exitY=1.064;exitDx=0;exitDy=0;exitPerimeter=0;" parent="1" edge="1">
          <mxGeometry width="50" height="50" relative="1" as="geometry">
            <mxPoint x="-418.61" y="240.57999999999993" as="sourcePoint" />
            <mxPoint x="-420" y="79.3" as="targetPoint" />
          </mxGeometry>
        </mxCell>
        <mxCell id="SOsMVHl4s7LR2z6pSPWi-61" value="&lt;font style=&quot;font-size: 12px&quot; face=&quot;Times New Roman&quot;&gt;ID&lt;/font&gt;" style="text;html=1;align=center;verticalAlign=middle;resizable=0;points=[];autosize=1;strokeColor=none;" parent="1" vertex="1">
          <mxGeometry x="-491" y="80.3" width="30" height="20" as="geometry" />
        </mxCell>
        <mxCell id="SOsMVHl4s7LR2z6pSPWi-62" value="&lt;font style=&quot;font-size: 14px&quot; face=&quot;Times New Roman&quot;&gt;&lt;span&gt;LB&lt;/span&gt;&lt;/font&gt;" style="text;html=1;align=center;verticalAlign=middle;resizable=0;points=[];autosize=1;strokeColor=none;fontStyle=0" parent="1" vertex="1">
          <mxGeometry x="-455" y="80.3" width="30" height="20" as="geometry" />
        </mxCell>
        <mxCell id="SOsMVHl4s7LR2z6pSPWi-63" value="&lt;font style=&quot;font-size: 14px&quot; face=&quot;Times New Roman&quot;&gt;count&lt;/font&gt;" style="text;html=1;align=center;verticalAlign=middle;resizable=0;points=[];autosize=1;strokeColor=none;" parent="1" vertex="1">
          <mxGeometry x="-419" y="80.3" width="50" height="20" as="geometry" />
        </mxCell>
        <mxCell id="SOsMVHl4s7LR2z6pSPWi-65" value="&lt;font style=&quot;font-size: 12px&quot; face=&quot;Times New Roman&quot;&gt;&lt;i&gt;P&lt;/i&gt;&lt;/font&gt;&lt;font style=&quot;font-size: 6px&quot; face=&quot;Times New Roman&quot;&gt;&lt;sub&gt;1&lt;/sub&gt;&lt;/font&gt;" style="text;html=1;align=center;verticalAlign=middle;resizable=0;points=[];autosize=1;strokeColor=none;" parent="1" vertex="1">
          <mxGeometry x="-491" y="109.3" width="30" height="20" as="geometry" />
        </mxCell>
        <mxCell id="SOsMVHl4s7LR2z6pSPWi-66" value="" style="endArrow=none;html=1;exitX=1.007;exitY=0.535;exitDx=0;exitDy=0;exitPerimeter=0;" parent="1" edge="1" source="SOsMVHl4s7LR2z6pSPWi-65">
          <mxGeometry width="50" height="50" relative="1" as="geometry">
            <mxPoint x="-447" y="119.3" as="sourcePoint" />
            <mxPoint x="-368" y="119.3" as="targetPoint" />
          </mxGeometry>
        </mxCell>
        <mxCell id="SOsMVHl4s7LR2z6pSPWi-73" value="&lt;font face=&quot;Times New Roman&quot;&gt;165&lt;/font&gt;" style="text;html=1;align=center;verticalAlign=middle;resizable=0;points=[];autosize=1;strokeColor=none;" parent="1" vertex="1">
          <mxGeometry x="-413" y="99.3" width="30" height="20" as="geometry" />
        </mxCell>
        <mxCell id="SOsMVHl4s7LR2z6pSPWi-74" value="&lt;font face=&quot;Times New Roman&quot;&gt;63&lt;/font&gt;" style="text;html=1;align=center;verticalAlign=middle;resizable=0;points=[];autosize=1;strokeColor=none;" parent="1" vertex="1">
          <mxGeometry x="-413" y="119.3" width="30" height="20" as="geometry" />
        </mxCell>
        <mxCell id="SOsMVHl4s7LR2z6pSPWi-75" value="&lt;font face=&quot;Times New Roman&quot;&gt;51&lt;/font&gt;" style="text;html=1;align=center;verticalAlign=middle;resizable=0;points=[];autosize=1;strokeColor=none;" parent="1" vertex="1">
          <mxGeometry x="-413" y="139.30000000000004" width="30" height="20" as="geometry" />
        </mxCell>
        <mxCell id="SOsMVHl4s7LR2z6pSPWi-76" value="&lt;font face=&quot;Times New Roman&quot;&gt;16&lt;/font&gt;" style="text;html=1;align=center;verticalAlign=middle;resizable=0;points=[];autosize=1;strokeColor=none;" parent="1" vertex="1">
          <mxGeometry x="-413" y="159.30000000000004" width="30" height="20" as="geometry" />
        </mxCell>
        <mxCell id="SOsMVHl4s7LR2z6pSPWi-77" value="" style="endArrow=none;html=1;exitX=0;exitY=1;exitDx=0;exitDy=0;" parent="1" edge="1" source="dBrtnQbdnbP_hNXoyty3-6">
          <mxGeometry width="50" height="50" relative="1" as="geometry">
            <mxPoint x="-477" y="240.3" as="sourcePoint" />
            <mxPoint x="-367" y="240.3" as="targetPoint" />
          </mxGeometry>
        </mxCell>
        <mxCell id="SOsMVHl4s7LR2z6pSPWi-78" value="&lt;font face=&quot;Times New Roman&quot;&gt;&lt;i&gt;P&lt;/i&gt;&lt;span style=&quot;font-size: 10px&quot;&gt;&lt;sub&gt;4&lt;/sub&gt;&lt;/span&gt;&lt;/font&gt;" style="text;html=1;align=center;verticalAlign=middle;resizable=0;points=[];autosize=1;strokeColor=none;" parent="1" vertex="1">
          <mxGeometry x="-493" y="199.3" width="30" height="20" as="geometry" />
        </mxCell>
        <mxCell id="SOsMVHl4s7LR2z6pSPWi-81" value="&lt;font face=&quot;Times New Roman&quot;&gt;2&lt;/font&gt;" style="text;html=1;align=center;verticalAlign=middle;resizable=0;points=[];autosize=1;strokeColor=none;" parent="1" vertex="1">
          <mxGeometry x="-408" y="179.3" width="20" height="20" as="geometry" />
        </mxCell>
        <mxCell id="SOsMVHl4s7LR2z6pSPWi-82" value="" style="endArrow=none;html=1;" parent="1" edge="1">
          <mxGeometry width="50" height="50" relative="1" as="geometry">
            <mxPoint x="-460" y="219" as="sourcePoint" />
            <mxPoint x="-367" y="219.06" as="targetPoint" />
          </mxGeometry>
        </mxCell>
        <mxCell id="SOsMVHl4s7LR2z6pSPWi-85" value="&lt;font face=&quot;Times New Roman&quot;&gt;3&lt;/font&gt;" style="text;html=1;align=center;verticalAlign=middle;resizable=0;points=[];autosize=1;strokeColor=none;" parent="1" vertex="1">
          <mxGeometry x="-408" y="199.3" width="20" height="20" as="geometry" />
        </mxCell>
        <mxCell id="SOsMVHl4s7LR2z6pSPWi-86" value="&lt;font face=&quot;Times New Roman&quot;&gt;2&lt;/font&gt;" style="text;html=1;align=center;verticalAlign=middle;resizable=0;points=[];autosize=1;strokeColor=none;" parent="1" vertex="1">
          <mxGeometry x="-408" y="219.3" width="20" height="20" as="geometry" />
        </mxCell>
        <mxCell id="SOsMVHl4s7LR2z6pSPWi-88" value="&lt;font style=&quot;font-size: 12px&quot; face=&quot;Times New Roman&quot;&gt;&lt;i&gt;P&lt;/i&gt;&lt;sub&gt;3&lt;/sub&gt;&lt;/font&gt;" style="text;html=1;align=center;verticalAlign=middle;resizable=0;points=[];autosize=1;strokeColor=none;" parent="1" vertex="1">
          <mxGeometry x="-493" y="159.30000000000004" width="30" height="20" as="geometry" />
        </mxCell>
        <mxCell id="SOsMVHl4s7LR2z6pSPWi-101" value="" style="endArrow=none;html=1;exitX=0.048;exitY=-0.003;exitDx=0;exitDy=0;exitPerimeter=0;" parent="1" edge="1" source="SOsMVHl4s7LR2z6pSPWi-102">
          <mxGeometry width="50" height="50" relative="1" as="geometry">
            <mxPoint x="-478" y="139.29999999999998" as="sourcePoint" />
            <mxPoint x="-368" y="139.29999999999998" as="targetPoint" />
          </mxGeometry>
        </mxCell>
        <mxCell id="SOsMVHl4s7LR2z6pSPWi-102" value="&lt;font style=&quot;font-size: 12px&quot; face=&quot;Times New Roman&quot;&gt;&lt;i&gt;P&lt;/i&gt;&lt;sub&gt;2&lt;/sub&gt;&lt;/font&gt;" style="text;html=1;align=center;verticalAlign=middle;resizable=0;points=[];autosize=1;strokeColor=none;" parent="1" vertex="1">
          <mxGeometry x="-493" y="139.30000000000004" width="30" height="20" as="geometry" />
        </mxCell>
        <mxCell id="SOsMVHl4s7LR2z6pSPWi-103" value="" style="endArrow=none;html=1;exitX=0.039;exitY=0.992;exitDx=0;exitDy=0;exitPerimeter=0;" parent="1" edge="1" source="SOsMVHl4s7LR2z6pSPWi-102">
          <mxGeometry width="50" height="50" relative="1" as="geometry">
            <mxPoint x="-478" y="159.30000000000004" as="sourcePoint" />
            <mxPoint x="-368" y="159.30000000000004" as="targetPoint" />
          </mxGeometry>
        </mxCell>
        <mxCell id="SOsMVHl4s7LR2z6pSPWi-104" value="" style="endArrow=none;html=1;spacingLeft=-16;spacing=1;exitX=0.049;exitY=1.015;exitDx=0;exitDy=0;exitPerimeter=0;" parent="1" edge="1" source="SOsMVHl4s7LR2z6pSPWi-88">
          <mxGeometry width="50" height="50" relative="1" as="geometry">
            <mxPoint x="-498" y="179.60000000000002" as="sourcePoint" />
            <mxPoint x="-367" y="179.3" as="targetPoint" />
          </mxGeometry>
        </mxCell>
        <mxCell id="SOsMVHl4s7LR2z6pSPWi-105" value="" style="endArrow=none;html=1;exitX=0.991;exitY=0.705;exitDx=0;exitDy=0;exitPerimeter=0;" parent="1" edge="1" source="dBrtnQbdnbP_hNXoyty3-6">
          <mxGeometry width="50" height="50" relative="1" as="geometry">
            <mxPoint x="-460" y="199" as="sourcePoint" />
            <mxPoint x="-368" y="199.3" as="targetPoint" />
          </mxGeometry>
        </mxCell>
        <mxCell id="SOsMVHl4s7LR2z6pSPWi-106" value="" style="endArrow=none;html=1;exitX=1.013;exitY=1.064;exitDx=0;exitDy=0;exitPerimeter=0;" parent="1" edge="1">
          <mxGeometry width="50" height="50" relative="1" as="geometry">
            <mxPoint x="-366.6099999999999" y="240.57999999999998" as="sourcePoint" />
            <mxPoint x="-368" y="79.3" as="targetPoint" />
          </mxGeometry>
        </mxCell>
        <mxCell id="SOsMVHl4s7LR2z6pSPWi-107" value="" style="endArrow=none;html=1;exitX=1.013;exitY=1.064;exitDx=0;exitDy=0;exitPerimeter=0;" parent="1" edge="1">
          <mxGeometry width="50" height="50" relative="1" as="geometry">
            <mxPoint x="-490.9999999999999" y="240.29999999999998" as="sourcePoint" />
            <mxPoint x="-492.39" y="79.02" as="targetPoint" />
          </mxGeometry>
        </mxCell>
        <mxCell id="SOsMVHl4s7LR2z6pSPWi-108" value="" style="endArrow=classic;html=1;fillColor=#FF0000;strokeColor=#FF0000;" parent="1" edge="1">
          <mxGeometry width="50" height="50" relative="1" as="geometry">
            <mxPoint x="-367" y="119.3" as="sourcePoint" />
            <mxPoint x="-318" y="88.3" as="targetPoint" />
          </mxGeometry>
        </mxCell>
        <mxCell id="SOsMVHl4s7LR2z6pSPWi-109" value="" style="endArrow=classic;html=1;strokeColor=#FF0000;" parent="1" edge="1">
          <mxGeometry width="50" height="50" relative="1" as="geometry">
            <mxPoint x="-367" y="150.3" as="sourcePoint" />
            <mxPoint x="-319" y="190" as="targetPoint" />
          </mxGeometry>
        </mxCell>
        <mxCell id="E4blvEDHZqpK1_lMUiRl-1" value="" style="endArrow=none;dashed=1;html=1;" parent="1" edge="1">
          <mxGeometry width="50" height="50" relative="1" as="geometry">
            <mxPoint x="-228.5" y="199.92000000000002" as="sourcePoint" />
            <mxPoint x="-309.5" y="199.92000000000002" as="targetPoint" />
          </mxGeometry>
        </mxCell>
        <mxCell id="E4blvEDHZqpK1_lMUiRl-5" value="" style="endArrow=none;dashed=1;html=1;" parent="1" edge="1">
          <mxGeometry width="50" height="50" relative="1" as="geometry">
            <mxPoint x="-228.5" y="259.14" as="sourcePoint" />
            <mxPoint x="-309.5" y="259.14" as="targetPoint" />
          </mxGeometry>
        </mxCell>
        <mxCell id="E4blvEDHZqpK1_lMUiRl-9" value="" style="endArrow=none;dashed=1;html=1;" parent="1" edge="1">
          <mxGeometry width="50" height="50" relative="1" as="geometry">
            <mxPoint x="-238.4999999999999" y="270.0799999999999" as="sourcePoint" />
            <mxPoint x="-238.4999999999999" y="190.08" as="targetPoint" />
          </mxGeometry>
        </mxCell>
        <mxCell id="E4blvEDHZqpK1_lMUiRl-10" value="" style="ellipse;whiteSpace=wrap;html=1;aspect=fixed;shadow=0;fillColor=#FFFFFF;strokeColor=#66B2FF;" parent="1" vertex="1">
          <mxGeometry x="-316" y="202.3" width="56" height="56" as="geometry" />
        </mxCell>
        <mxCell id="E4blvEDHZqpK1_lMUiRl-3" value="" style="endArrow=none;dashed=1;html=1;" parent="1" edge="1">
          <mxGeometry width="50" height="50" relative="1" as="geometry">
            <mxPoint x="-228.5" y="219.14" as="sourcePoint" />
            <mxPoint x="-309.5" y="219.14" as="targetPoint" />
          </mxGeometry>
        </mxCell>
        <mxCell id="E4blvEDHZqpK1_lMUiRl-4" value="" style="endArrow=none;dashed=1;html=1;" parent="1" edge="1">
          <mxGeometry width="50" height="50" relative="1" as="geometry">
            <mxPoint x="-228.5" y="239.14" as="sourcePoint" />
            <mxPoint x="-309.5" y="239.14" as="targetPoint" />
          </mxGeometry>
        </mxCell>
        <mxCell id="E4blvEDHZqpK1_lMUiRl-7" value="" style="endArrow=none;dashed=1;html=1;" parent="1" edge="1">
          <mxGeometry width="50" height="50" relative="1" as="geometry">
            <mxPoint x="-278.4999999999999" y="270.0799999999999" as="sourcePoint" />
            <mxPoint x="-278.4999999999999" y="190.08000000000004" as="targetPoint" />
          </mxGeometry>
        </mxCell>
        <mxCell id="E4blvEDHZqpK1_lMUiRl-8" value="" style="endArrow=none;dashed=1;html=1;" parent="1" edge="1">
          <mxGeometry width="50" height="50" relative="1" as="geometry">
            <mxPoint x="-258.4999999999999" y="270.0799999999999" as="sourcePoint" />
            <mxPoint x="-258.4999999999999" y="190.08" as="targetPoint" />
          </mxGeometry>
        </mxCell>
        <mxCell id="SOsMVHl4s7LR2z6pSPWi-133" value="" style="shape=waypoint;sketch=0;fillStyle=solid;size=6;pointerEvents=1;points=[];fillColor=none;resizable=0;rotatable=0;perimeter=centerPerimeter;snapToPoint=1;strokeColor=#009900;fontSize=1;" parent="1" vertex="1">
          <mxGeometry x="-268" y="190.00000000000006" width="40" height="40" as="geometry" />
        </mxCell>
        <mxCell id="E4blvEDHZqpK1_lMUiRl-14" value="" style="endArrow=none;dashed=1;html=1;" parent="1" edge="1">
          <mxGeometry width="50" height="50" relative="1" as="geometry">
            <mxPoint x="-140" y="41.3" as="sourcePoint" />
            <mxPoint x="-320" y="41.3" as="targetPoint" />
          </mxGeometry>
        </mxCell>
        <mxCell id="E4blvEDHZqpK1_lMUiRl-15" value="" style="endArrow=none;dashed=1;html=1;" parent="1" edge="1">
          <mxGeometry width="50" height="50" relative="1" as="geometry">
            <mxPoint x="-140" y="79.3" as="sourcePoint" />
            <mxPoint x="-320" y="79.3" as="targetPoint" />
          </mxGeometry>
        </mxCell>
        <mxCell id="E4blvEDHZqpK1_lMUiRl-16" value="" style="endArrow=none;dashed=1;html=1;" parent="1" edge="1">
          <mxGeometry width="50" height="50" relative="1" as="geometry">
            <mxPoint x="-140" y="120.3" as="sourcePoint" />
            <mxPoint x="-320" y="120.3" as="targetPoint" />
          </mxGeometry>
        </mxCell>
        <mxCell id="E4blvEDHZqpK1_lMUiRl-18" value="" style="endArrow=none;dashed=1;html=1;" parent="1" edge="1">
          <mxGeometry width="50" height="50" relative="1" as="geometry">
            <mxPoint x="-290" y="179.3" as="sourcePoint" />
            <mxPoint x="-290" y="19.3" as="targetPoint" />
          </mxGeometry>
        </mxCell>
        <mxCell id="E4blvEDHZqpK1_lMUiRl-19" value="" style="endArrow=none;dashed=1;html=1;" parent="1" edge="1">
          <mxGeometry width="50" height="50" relative="1" as="geometry">
            <mxPoint x="-250" y="179.3" as="sourcePoint" />
            <mxPoint x="-250" y="19.3" as="targetPoint" />
          </mxGeometry>
        </mxCell>
        <mxCell id="E4blvEDHZqpK1_lMUiRl-20" value="" style="endArrow=none;dashed=1;html=1;" parent="1" edge="1">
          <mxGeometry width="50" height="50" relative="1" as="geometry">
            <mxPoint x="-210" y="179.3" as="sourcePoint" />
            <mxPoint x="-210" y="19.3" as="targetPoint" />
          </mxGeometry>
        </mxCell>
        <mxCell id="E4blvEDHZqpK1_lMUiRl-21" value="" style="endArrow=none;dashed=1;html=1;" parent="1" edge="1">
          <mxGeometry width="50" height="50" relative="1" as="geometry">
            <mxPoint x="-170" y="179.3" as="sourcePoint" />
            <mxPoint x="-170" y="19.3" as="targetPoint" />
          </mxGeometry>
        </mxCell>
        <mxCell id="E4blvEDHZqpK1_lMUiRl-24" value="" style="endArrow=none;html=1;shadow=0;" parent="1" edge="1">
          <mxGeometry width="50" height="50" relative="1" as="geometry">
            <mxPoint x="-290" y="79.67" as="sourcePoint" />
            <mxPoint x="-170" y="79.67" as="targetPoint" />
          </mxGeometry>
        </mxCell>
        <mxCell id="E4blvEDHZqpK1_lMUiRl-25" value="" style="endArrow=none;html=1;shadow=0;" parent="1" edge="1">
          <mxGeometry width="50" height="50" relative="1" as="geometry">
            <mxPoint x="-290" y="120" as="sourcePoint" />
            <mxPoint x="-170" y="120" as="targetPoint" />
          </mxGeometry>
        </mxCell>
        <mxCell id="E4blvEDHZqpK1_lMUiRl-27" value="" style="endArrow=none;html=1;shadow=0;" parent="1" edge="1">
          <mxGeometry width="50" height="50" relative="1" as="geometry">
            <mxPoint x="-250" y="40.99999999999997" as="sourcePoint" />
            <mxPoint x="-250" y="160.80000813802084" as="targetPoint" />
          </mxGeometry>
        </mxCell>
        <mxCell id="E4blvEDHZqpK1_lMUiRl-28" value="" style="endArrow=none;html=1;shadow=0;" parent="1" edge="1">
          <mxGeometry width="50" height="50" relative="1" as="geometry">
            <mxPoint x="-210" y="41.79999999999997" as="sourcePoint" />
            <mxPoint x="-210" y="161.60000813802085" as="targetPoint" />
          </mxGeometry>
        </mxCell>
        <mxCell id="E4blvEDHZqpK1_lMUiRl-32" value="" style="shape=waypoint;sketch=0;fillStyle=solid;size=6;pointerEvents=1;points=[];fillColor=none;resizable=0;rotatable=0;perimeter=centerPerimeter;snapToPoint=1;strokeColor=#009900;" parent="1" vertex="1">
          <mxGeometry x="-240.00000000000006" y="93.99999999999997" width="40" height="40" as="geometry" />
        </mxCell>
        <mxCell id="E4blvEDHZqpK1_lMUiRl-33" value="" style="shape=waypoint;sketch=0;fillStyle=solid;size=6;pointerEvents=1;points=[];fillColor=none;resizable=0;rotatable=0;perimeter=centerPerimeter;snapToPoint=1;strokeColor=#009900;" parent="1" vertex="1">
          <mxGeometry x="-258.00000000000006" y="80.49999999999997" width="40" height="40" as="geometry" />
        </mxCell>
        <mxCell id="E4blvEDHZqpK1_lMUiRl-35" value="" style="endArrow=classic;html=1;shadow=0;strokeColor=#FFFFFF;" parent="1" edge="1">
          <mxGeometry width="50" height="50" relative="1" as="geometry">
            <mxPoint x="-720" y="285" as="sourcePoint" />
            <mxPoint x="-670" y="235" as="targetPoint" />
          </mxGeometry>
        </mxCell>
        <mxCell id="E4blvEDHZqpK1_lMUiRl-38" value="" style="shape=partialRectangle;whiteSpace=wrap;html=1;top=0;left=0;fillColor=none;shadow=0;strokeColor=#EA6B66;direction=south;" parent="1" vertex="1">
          <mxGeometry x="-680" y="100" width="40" height="140" as="geometry" />
        </mxCell>
        <mxCell id="E4blvEDHZqpK1_lMUiRl-40" value="" style="shape=partialRectangle;whiteSpace=wrap;html=1;top=0;left=0;fillColor=none;shadow=0;strokeColor=#0000CC;direction=south;" parent="1" vertex="1">
          <mxGeometry x="-660" y="120" width="20" height="60" as="geometry" />
        </mxCell>
        <mxCell id="E4blvEDHZqpK1_lMUiRl-43" value="" style="endArrow=classic;html=1;shadow=0;strokeColor=#EA6B66;exitX=0.783;exitY=0.997;exitDx=0;exitDy=0;exitPerimeter=0;" parent="1" edge="1">
          <mxGeometry width="50" height="50" relative="1" as="geometry">
            <mxPoint x="-679.88" y="198.87500000000006" as="sourcePoint" />
            <mxPoint x="-639" y="198.71" as="targetPoint" />
          </mxGeometry>
        </mxCell>
        <mxCell id="E4blvEDHZqpK1_lMUiRl-44" value="" style="endArrow=classic;html=1;shadow=0;strokeColor=#EA6B66;" parent="1" edge="1">
          <mxGeometry width="50" height="50" relative="1" as="geometry">
            <mxPoint x="-680" y="99.86" as="sourcePoint" />
            <mxPoint x="-638" y="100" as="targetPoint" />
          </mxGeometry>
        </mxCell>
        <mxCell id="E4blvEDHZqpK1_lMUiRl-45" value="" style="endArrow=classic;html=1;shadow=0;strokeColor=#0000CC;fillColor=#0000FF;entryX=1.05;entryY=0.94;entryDx=0;entryDy=0;entryPerimeter=0;" parent="1" edge="1">
          <mxGeometry width="50" height="50" relative="1" as="geometry">
            <mxPoint x="-660" y="119.75999999999999" as="sourcePoint" />
            <mxPoint x="-638.5" y="119.79999999999998" as="targetPoint" />
          </mxGeometry>
        </mxCell>
        <mxCell id="dBrtnQbdnbP_hNXoyty3-1" value="&lt;font face=&quot;Times New Roman&quot;&gt;&lt;font style=&quot;font-size: 14px&quot;&gt;&lt;i&gt;r&lt;/i&gt;&lt;/font&gt;&lt;sub&gt;&lt;font style=&quot;font-size: 10px&quot;&gt;1&lt;/font&gt;&lt;/sub&gt;&lt;/font&gt;" style="text;html=1;align=center;verticalAlign=middle;resizable=0;points=[];autosize=1;strokeColor=none;" parent="1" vertex="1">
          <mxGeometry x="-670" y="81" width="30" height="20" as="geometry" />
        </mxCell>
        <mxCell id="dBrtnQbdnbP_hNXoyty3-3" value="&lt;span style=&quot;color: rgb(0 , 0 , 0) ; font-family: &amp;#34;times new roman&amp;#34; ; font-weight: 400 ; letter-spacing: normal ; text-align: center ; text-indent: 0px ; text-transform: none ; word-spacing: 0px ; background-color: rgb(248 , 249 , 250) ; display: inline ; float: none&quot;&gt;&lt;font style=&quot;font-size: 14px&quot;&gt;&lt;i&gt;r&lt;/i&gt;&lt;/font&gt;&lt;/span&gt;&lt;span style=&quot;color: rgb(0 , 0 , 0) ; font-family: &amp;#34;times new roman&amp;#34; ; font-style: normal ; font-weight: 400 ; letter-spacing: normal ; text-align: center ; text-indent: 0px ; text-transform: none ; word-spacing: 0px ; background-color: rgb(248 , 249 , 250) ; display: inline ; float: none ; font-size: 10px&quot;&gt;&lt;sub&gt;2&lt;/sub&gt;&lt;/span&gt;" style="text;whiteSpace=wrap;html=1;" parent="1" vertex="1">
          <mxGeometry x="-662" y="174.3" width="40" height="30" as="geometry" />
        </mxCell>
        <mxCell id="dBrtnQbdnbP_hNXoyty3-8" value="&lt;font face=&quot;Times New Roman&quot;&gt;&lt;font style=&quot;font-size: 14px&quot;&gt;&lt;i&gt;r&lt;/i&gt;&lt;/font&gt;&lt;sub&gt;&lt;font style=&quot;font-size: 10px&quot;&gt;1&lt;/font&gt;&lt;/sub&gt;&lt;/font&gt;" style="text;html=1;align=center;verticalAlign=middle;resizable=0;points=[];autosize=1;strokeColor=none;" parent="1" vertex="1">
          <mxGeometry x="-670" y="101" width="30" height="20" as="geometry" />
        </mxCell>
        <mxCell id="E4blvEDHZqpK1_lMUiRl-6" value="" style="endArrow=none;dashed=1;html=1;" parent="1" edge="1">
          <mxGeometry width="50" height="50" relative="1" as="geometry">
            <mxPoint x="-298.4999999999999" y="269.99999999999994" as="sourcePoint" />
            <mxPoint x="-298.4999999999999" y="190.00000000000003" as="targetPoint" />
          </mxGeometry>
        </mxCell>
        <mxCell id="E4blvEDHZqpK1_lMUiRl-34" value="" style="shape=waypoint;sketch=0;fillStyle=solid;size=6;pointerEvents=1;points=[];fillColor=#CCCCCC;resizable=0;rotatable=0;perimeter=centerPerimeter;snapToPoint=1;strokeColor=#009900;" parent="1" vertex="1">
          <mxGeometry x="-210.00000000000006" y="90.99999999999997" width="40" height="40" as="geometry" />
        </mxCell>
        <mxCell id="TgXw0Lu5bYYEqpKtV-oY-40" value="&lt;font face=&quot;Times New Roman&quot; style=&quot;font-size: 14px&quot;&gt;$$C^1_1$$&lt;/font&gt;" style="text;html=1;align=center;verticalAlign=middle;resizable=0;points=[];autosize=1;strokeColor=none;" parent="1" vertex="1">
          <mxGeometry x="-221" y="42.5" width="80" height="20" as="geometry" />
        </mxCell>
        <mxCell id="uY6MUYiCeZcARheirXIh-1" value="&lt;font face=&quot;Times New Roman&quot; style=&quot;font-size: 14px&quot;&gt;$$|c_m(o)|$$&lt;/font&gt;" style="text;html=1;align=center;verticalAlign=middle;resizable=0;points=[];autosize=1;strokeColor=none;" vertex="1" parent="1">
          <mxGeometry x="-629" y="50.000000000000014" width="90" height="20" as="geometry" />
        </mxCell>
        <mxCell id="uY6MUYiCeZcARheirXIh-13" value="&lt;font face=&quot;Times New Roman&quot; style=&quot;font-size: 14px&quot;&gt;$$2^{-1}$$&lt;/font&gt;" style="text;html=1;align=center;verticalAlign=middle;resizable=0;points=[];autosize=1;strokeColor=none;" vertex="1" parent="1">
          <mxGeometry x="-617" y="70" width="80" height="20" as="geometry" />
        </mxCell>
        <mxCell id="uY6MUYiCeZcARheirXIh-14" value="&lt;font face=&quot;Times New Roman&quot; style=&quot;font-size: 14px&quot;&gt;$$2^{-2}$$&lt;/font&gt;" style="text;html=1;align=center;verticalAlign=middle;resizable=0;points=[];autosize=1;strokeColor=none;" vertex="1" parent="1">
          <mxGeometry x="-617" y="91" width="80" height="20" as="geometry" />
        </mxCell>
        <mxCell id="uY6MUYiCeZcARheirXIh-15" value="&lt;font face=&quot;Times New Roman&quot; style=&quot;font-size: 14px&quot;&gt;$$2^{-3}$$&lt;/font&gt;" style="text;html=1;align=center;verticalAlign=middle;resizable=0;points=[];autosize=1;strokeColor=none;" vertex="1" parent="1">
          <mxGeometry x="-617" y="111" width="80" height="20" as="geometry" />
        </mxCell>
        <mxCell id="uY6MUYiCeZcARheirXIh-16" value="&lt;font face=&quot;Times New Roman&quot; style=&quot;font-size: 14px&quot;&gt;$$2^{-4}$$&lt;/font&gt;" style="text;html=1;align=center;verticalAlign=middle;resizable=0;points=[];autosize=1;strokeColor=none;" vertex="1" parent="1">
          <mxGeometry x="-619" y="130" width="80" height="20" as="geometry" />
        </mxCell>
        <mxCell id="uY6MUYiCeZcARheirXIh-17" value="&lt;font face=&quot;Times New Roman&quot; style=&quot;font-size: 14px&quot;&gt;$$2^{-5}$$&lt;/font&gt;" style="text;html=1;align=center;verticalAlign=middle;resizable=0;points=[];autosize=1;strokeColor=none;" vertex="1" parent="1">
          <mxGeometry x="-619" y="150" width="80" height="20" as="geometry" />
        </mxCell>
        <mxCell id="uY6MUYiCeZcARheirXIh-18" value="&lt;font face=&quot;Times New Roman&quot; style=&quot;font-size: 14px&quot;&gt;$$2^{-6}$$&lt;/font&gt;" style="text;html=1;align=center;verticalAlign=middle;resizable=0;points=[];autosize=1;strokeColor=none;" vertex="1" parent="1">
          <mxGeometry x="-619" y="171" width="80" height="20" as="geometry" />
        </mxCell>
        <mxCell id="uY6MUYiCeZcARheirXIh-19" value="&lt;font face=&quot;Times New Roman&quot; style=&quot;font-size: 14px&quot;&gt;$$2^{-7}$$&lt;/font&gt;" style="text;html=1;align=center;verticalAlign=middle;resizable=0;points=[];autosize=1;strokeColor=none;" vertex="1" parent="1">
          <mxGeometry x="-619" y="191" width="80" height="20" as="geometry" />
        </mxCell>
        <mxCell id="uY6MUYiCeZcARheirXIh-20" value="&lt;font face=&quot;Times New Roman&quot; style=&quot;font-size: 14px&quot;&gt;$$2^{-8}$$&lt;/font&gt;" style="text;html=1;align=center;verticalAlign=middle;resizable=0;points=[];autosize=1;strokeColor=none;" vertex="1" parent="1">
          <mxGeometry x="-619" y="210" width="80" height="20" as="geometry" />
        </mxCell>
        <mxCell id="uY6MUYiCeZcARheirXIh-21" value="&lt;font face=&quot;Times New Roman&quot; style=&quot;font-size: 14px&quot;&gt;$$2^{-9}$$&lt;/font&gt;" style="text;html=1;align=center;verticalAlign=middle;resizable=0;points=[];autosize=1;strokeColor=none;" vertex="1" parent="1">
          <mxGeometry x="-619" y="230" width="80" height="20" as="geometry" />
        </mxCell>
        <mxCell id="uY6MUYiCeZcARheirXIh-22" value="&lt;font face=&quot;Times New Roman&quot; style=&quot;font-size: 14px&quot;&gt;$$2^{-10}$$&lt;/font&gt;" style="text;html=1;align=center;verticalAlign=middle;resizable=0;points=[];autosize=1;strokeColor=none;" vertex="1" parent="1">
          <mxGeometry x="-624" y="250" width="90" height="20" as="geometry" />
        </mxCell>
        <mxCell id="uY6MUYiCeZcARheirXIh-23" value="&lt;font face=&quot;Times New Roman&quot; style=&quot;font-size: 14px&quot;&gt;$$2^{-7}$$&lt;/font&gt;" style="text;html=1;align=center;verticalAlign=middle;resizable=0;points=[];autosize=1;strokeColor=none;" vertex="1" parent="1">
          <mxGeometry x="-480" y="141" width="80" height="20" as="geometry" />
        </mxCell>
        <mxCell id="uY6MUYiCeZcARheirXIh-24" value="&lt;font face=&quot;Times New Roman&quot; style=&quot;font-size: 14px&quot;&gt;$$2^{-9}$$&lt;/font&gt;" style="text;html=1;align=center;verticalAlign=middle;resizable=0;points=[];autosize=1;strokeColor=none;" vertex="1" parent="1">
          <mxGeometry x="-480" y="181" width="80" height="20" as="geometry" />
        </mxCell>
        <mxCell id="uY6MUYiCeZcARheirXIh-25" value="&lt;font face=&quot;Times New Roman&quot; style=&quot;font-size: 14px&quot;&gt;$$2^{-6}$$&lt;/font&gt;" style="text;html=1;align=center;verticalAlign=middle;resizable=0;points=[];autosize=1;strokeColor=none;" vertex="1" parent="1">
          <mxGeometry x="-480" y="121" width="80" height="20" as="geometry" />
        </mxCell>
        <mxCell id="uY6MUYiCeZcARheirXIh-26" value="&lt;font face=&quot;Times New Roman&quot; style=&quot;font-size: 14px&quot;&gt;$$2^{-5}$$&lt;/font&gt;" style="text;html=1;align=center;verticalAlign=middle;resizable=0;points=[];autosize=1;strokeColor=none;" vertex="1" parent="1">
          <mxGeometry x="-480" y="99.3" width="80" height="20" as="geometry" />
        </mxCell>
        <mxCell id="uY6MUYiCeZcARheirXIh-27" value="&lt;font face=&quot;Times New Roman&quot; style=&quot;font-size: 14px&quot;&gt;$$2^{-8}$$&lt;/font&gt;" style="text;html=1;align=center;verticalAlign=middle;resizable=0;points=[];autosize=1;strokeColor=none;" vertex="1" parent="1">
          <mxGeometry x="-480" y="159.3" width="80" height="20" as="geometry" />
        </mxCell>
        <mxCell id="uY6MUYiCeZcARheirXIh-28" value="&lt;font face=&quot;Times New Roman&quot; style=&quot;font-size: 14px&quot;&gt;$$2^{-10}$$&lt;/font&gt;" style="text;html=1;align=center;verticalAlign=middle;resizable=0;points=[];autosize=1;strokeColor=none;" vertex="1" parent="1">
          <mxGeometry x="-480" y="200" width="90" height="20" as="geometry" />
        </mxCell>
        <mxCell id="uY6MUYiCeZcARheirXIh-29" value="&lt;font face=&quot;Times New Roman&quot; style=&quot;font-size: 14px&quot;&gt;$$2^{-11}$$&lt;/font&gt;" style="text;html=1;align=center;verticalAlign=middle;resizable=0;points=[];autosize=1;strokeColor=none;" vertex="1" parent="1">
          <mxGeometry x="-480" y="220" width="90" height="20" as="geometry" />
        </mxCell>
      </root>
    </mxGraphModel>
  </diagram>
  <diagram name="Copy of Page-1" id="x5UQzzpSwf5y-kIUJ8kS">
    <mxGraphModel dx="2889" dy="1154" grid="1" gridSize="10" guides="1" tooltips="1" connect="1" arrows="1" fold="1" page="1" pageScale="1" pageWidth="827" pageHeight="1169" math="1" shadow="0">
      <root>
        <mxCell id="V0_J4JzwGfHiOP64WREc-0" />
        <mxCell id="V0_J4JzwGfHiOP64WREc-1" parent="V0_J4JzwGfHiOP64WREc-0" />
        <mxCell id="V0_J4JzwGfHiOP64WREc-2" value="" style="whiteSpace=wrap;html=1;aspect=fixed;shadow=0;strokeColor=#FFFFFF;fillColor=#CCCCCC;" parent="V0_J4JzwGfHiOP64WREc-1" vertex="1">
          <mxGeometry x="-210" y="41.5" width="40" height="40" as="geometry" />
        </mxCell>
        <mxCell id="V0_J4JzwGfHiOP64WREc-3" value="" style="whiteSpace=wrap;html=1;aspect=fixed;shadow=0;fillColor=#CCCCCC;strokeColor=#CCCCCC;" parent="V0_J4JzwGfHiOP64WREc-1" vertex="1">
          <mxGeometry x="-250" y="120" width="40" height="40" as="geometry" />
        </mxCell>
        <mxCell id="V0_J4JzwGfHiOP64WREc-4" value="" style="whiteSpace=wrap;html=1;aspect=fixed;shadow=0;strokeColor=#CCCCCC;fillColor=#CCCCCC;" parent="V0_J4JzwGfHiOP64WREc-1" vertex="1">
          <mxGeometry x="-210" y="80.5" width="40" height="40" as="geometry" />
        </mxCell>
        <mxCell id="V0_J4JzwGfHiOP64WREc-5" value="" style="ellipse;whiteSpace=wrap;html=1;aspect=fixed;shadow=0;strokeColor=#0000FF;fillColor=#FFFFFF;" parent="V0_J4JzwGfHiOP64WREc-1" vertex="1">
          <mxGeometry x="-288" y="41.30000000000001" width="116" height="116" as="geometry" />
        </mxCell>
        <mxCell id="V0_J4JzwGfHiOP64WREc-6" value="" style="whiteSpace=wrap;html=1;aspect=fixed;fillColor=#CCE5FF;strokeColor=#FFFFFF;shadow=0;" parent="V0_J4JzwGfHiOP64WREc-1" vertex="1">
          <mxGeometry x="-258" y="199.3" width="20" height="20" as="geometry" />
        </mxCell>
        <mxCell id="V0_J4JzwGfHiOP64WREc-7" value="" style="rounded=0;whiteSpace=wrap;html=1;fillColor=#EBEBEB;strokeColor=#E8E8E8;" parent="V0_J4JzwGfHiOP64WREc-1" vertex="1">
          <mxGeometry x="-477" y="101.04" width="30" height="138.92" as="geometry" />
        </mxCell>
        <mxCell id="V0_J4JzwGfHiOP64WREc-8" value="" style="rounded=0;whiteSpace=wrap;html=1;fillColor=#EBEBEB;strokeColor=#E8E8E8;" parent="V0_J4JzwGfHiOP64WREc-1" vertex="1">
          <mxGeometry x="-639" y="71" width="30" height="199" as="geometry" />
        </mxCell>
        <mxCell id="V0_J4JzwGfHiOP64WREc-9" value="" style="endArrow=none;html=1;" parent="V0_J4JzwGfHiOP64WREc-1" edge="1">
          <mxGeometry width="50" height="50" relative="1" as="geometry">
            <mxPoint x="-639" y="270" as="sourcePoint" />
            <mxPoint x="-639" y="50" as="targetPoint" />
          </mxGeometry>
        </mxCell>
        <mxCell id="V0_J4JzwGfHiOP64WREc-10" value="" style="endArrow=none;html=1;" parent="V0_J4JzwGfHiOP64WREc-1" edge="1">
          <mxGeometry width="50" height="50" relative="1" as="geometry">
            <mxPoint x="-639" y="50" as="sourcePoint" />
            <mxPoint x="-529" y="50" as="targetPoint" />
          </mxGeometry>
        </mxCell>
        <mxCell id="V0_J4JzwGfHiOP64WREc-11" value="" style="endArrow=none;html=1;" parent="V0_J4JzwGfHiOP64WREc-1" edge="1">
          <mxGeometry width="50" height="50" relative="1" as="geometry">
            <mxPoint x="-639" y="71" as="sourcePoint" />
            <mxPoint x="-529" y="71" as="targetPoint" />
          </mxGeometry>
        </mxCell>
        <mxCell id="V0_J4JzwGfHiOP64WREc-12" value="" style="endArrow=none;html=1;" parent="V0_J4JzwGfHiOP64WREc-1" edge="1">
          <mxGeometry width="50" height="50" relative="1" as="geometry">
            <mxPoint x="-529" y="270" as="sourcePoint" />
            <mxPoint x="-529" y="50" as="targetPoint" />
          </mxGeometry>
        </mxCell>
        <mxCell id="V0_J4JzwGfHiOP64WREc-13" value="" style="endArrow=none;html=1;exitX=0.032;exitY=0.998;exitDx=0;exitDy=0;exitPerimeter=0;" parent="V0_J4JzwGfHiOP64WREc-1" source="V0_J4JzwGfHiOP64WREc-47" edge="1">
          <mxGeometry width="50" height="50" relative="1" as="geometry">
            <mxPoint x="-608" y="490" as="sourcePoint" />
            <mxPoint x="-608" y="50" as="targetPoint" />
          </mxGeometry>
        </mxCell>
        <mxCell id="V0_J4JzwGfHiOP64WREc-14" value="" style="endArrow=none;html=1;exitX=0.984;exitY=1.036;exitDx=0;exitDy=0;exitPerimeter=0;" parent="V0_J4JzwGfHiOP64WREc-1" source="V0_J4JzwGfHiOP64WREc-47" edge="1">
          <mxGeometry width="50" height="50" relative="1" as="geometry">
            <mxPoint x="-581" y="490" as="sourcePoint" />
            <mxPoint x="-581" y="50" as="targetPoint" />
          </mxGeometry>
        </mxCell>
        <mxCell id="V0_J4JzwGfHiOP64WREc-15" value="&lt;font style=&quot;font-size: 12px&quot; face=&quot;Times New Roman&quot;&gt;ID&lt;/font&gt;" style="text;html=1;align=center;verticalAlign=middle;resizable=0;points=[];autosize=1;strokeColor=none;" parent="V0_J4JzwGfHiOP64WREc-1" vertex="1">
          <mxGeometry x="-638" y="51" width="30" height="20" as="geometry" />
        </mxCell>
        <mxCell id="V0_J4JzwGfHiOP64WREc-16" value="&lt;font style=&quot;font-size: 14px&quot; face=&quot;Times New Roman&quot;&gt;&lt;i&gt;v&lt;/i&gt;&lt;/font&gt;" style="text;html=1;align=center;verticalAlign=middle;resizable=0;points=[];autosize=1;strokeColor=none;" parent="V0_J4JzwGfHiOP64WREc-1" vertex="1">
          <mxGeometry x="-605" y="51" width="20" height="20" as="geometry" />
        </mxCell>
        <mxCell id="V0_J4JzwGfHiOP64WREc-17" value="&lt;font style=&quot;font-size: 14px&quot; face=&quot;Times New Roman&quot;&gt;count&lt;/font&gt;" style="text;html=1;align=center;verticalAlign=middle;resizable=0;points=[];autosize=1;strokeColor=none;" parent="V0_J4JzwGfHiOP64WREc-1" vertex="1">
          <mxGeometry x="-582" y="51" width="50" height="20" as="geometry" />
        </mxCell>
        <mxCell id="V0_J4JzwGfHiOP64WREc-18" value="" style="endArrow=none;html=1;" parent="V0_J4JzwGfHiOP64WREc-1" edge="1">
          <mxGeometry width="50" height="50" relative="1" as="geometry">
            <mxPoint x="-639" y="169.76" as="sourcePoint" />
            <mxPoint x="-529" y="169.76" as="targetPoint" />
          </mxGeometry>
        </mxCell>
        <mxCell id="V0_J4JzwGfHiOP64WREc-19" value="&lt;font face=&quot;Times New Roman&quot;&gt;&lt;span style=&quot;font-size: 12px&quot;&gt;&lt;i&gt;P&lt;/i&gt;&lt;/span&gt;&lt;sub&gt;&lt;font style=&quot;font-size: 8px&quot;&gt;1&lt;br&gt;228&lt;br&gt;&lt;/font&gt;&lt;/sub&gt;&lt;/font&gt;" style="text;html=1;align=center;verticalAlign=middle;resizable=0;points=[];autosize=1;strokeColor=none;" parent="V0_J4JzwGfHiOP64WREc-1" vertex="1">
          <mxGeometry x="-638" y="101" width="30" height="40" as="geometry" />
        </mxCell>
        <mxCell id="V0_J4JzwGfHiOP64WREc-20" value="" style="endArrow=none;html=1;" parent="V0_J4JzwGfHiOP64WREc-1" edge="1">
          <mxGeometry width="50" height="50" relative="1" as="geometry">
            <mxPoint x="-608" y="90" as="sourcePoint" />
            <mxPoint x="-529" y="90" as="targetPoint" />
          </mxGeometry>
        </mxCell>
        <mxCell id="V0_J4JzwGfHiOP64WREc-21" value="" style="endArrow=none;html=1;" parent="V0_J4JzwGfHiOP64WREc-1" edge="1">
          <mxGeometry width="50" height="50" relative="1" as="geometry">
            <mxPoint x="-608" y="109.75999999999995" as="sourcePoint" />
            <mxPoint x="-529" y="109.75999999999995" as="targetPoint" />
          </mxGeometry>
        </mxCell>
        <mxCell id="V0_J4JzwGfHiOP64WREc-22" value="" style="endArrow=none;html=1;" parent="V0_J4JzwGfHiOP64WREc-1" edge="1">
          <mxGeometry width="50" height="50" relative="1" as="geometry">
            <mxPoint x="-608" y="129.99999999999994" as="sourcePoint" />
            <mxPoint x="-529" y="129.99999999999994" as="targetPoint" />
          </mxGeometry>
        </mxCell>
        <mxCell id="V0_J4JzwGfHiOP64WREc-23" value="&lt;font face=&quot;Times New Roman&quot;&gt;-1&lt;/font&gt;" style="text;html=1;align=center;verticalAlign=middle;resizable=0;points=[];autosize=1;strokeColor=none;" parent="V0_J4JzwGfHiOP64WREc-1" vertex="1">
          <mxGeometry x="-610" y="70" width="30" height="20" as="geometry" />
        </mxCell>
        <mxCell id="V0_J4JzwGfHiOP64WREc-24" value="&lt;font face=&quot;Times New Roman&quot;&gt;-2&lt;/font&gt;" style="text;html=1;align=center;verticalAlign=middle;resizable=0;points=[];autosize=1;strokeColor=none;" parent="V0_J4JzwGfHiOP64WREc-1" vertex="1">
          <mxGeometry x="-610" y="90" width="30" height="20" as="geometry" />
        </mxCell>
        <mxCell id="V0_J4JzwGfHiOP64WREc-25" value="&lt;font face=&quot;Times New Roman&quot;&gt;-3&lt;/font&gt;" style="text;html=1;align=center;verticalAlign=middle;resizable=0;points=[];autosize=1;strokeColor=none;" parent="V0_J4JzwGfHiOP64WREc-1" vertex="1">
          <mxGeometry x="-610" y="110" width="30" height="20" as="geometry" />
        </mxCell>
        <mxCell id="V0_J4JzwGfHiOP64WREc-26" value="&lt;font face=&quot;Times New Roman&quot;&gt;-4&lt;/font&gt;" style="text;html=1;align=center;verticalAlign=middle;resizable=0;points=[];autosize=1;strokeColor=none;" parent="V0_J4JzwGfHiOP64WREc-1" vertex="1">
          <mxGeometry x="-610" y="130" width="30" height="20" as="geometry" />
        </mxCell>
        <mxCell id="V0_J4JzwGfHiOP64WREc-27" value="&lt;font face=&quot;Times New Roman&quot;&gt;2&lt;/font&gt;" style="text;html=1;align=center;verticalAlign=middle;resizable=0;points=[];autosize=1;strokeColor=none;" parent="V0_J4JzwGfHiOP64WREc-1" vertex="1">
          <mxGeometry x="-569" y="70" width="20" height="20" as="geometry" />
        </mxCell>
        <mxCell id="V0_J4JzwGfHiOP64WREc-28" value="&lt;font face=&quot;Times New Roman&quot;&gt;3&lt;/font&gt;" style="text;html=1;align=center;verticalAlign=middle;resizable=0;points=[];autosize=1;strokeColor=none;" parent="V0_J4JzwGfHiOP64WREc-1" vertex="1">
          <mxGeometry x="-569" y="90" width="20" height="20" as="geometry" />
        </mxCell>
        <mxCell id="V0_J4JzwGfHiOP64WREc-29" value="&lt;font face=&quot;Times New Roman&quot;&gt;6&lt;/font&gt;" style="text;html=1;align=center;verticalAlign=middle;resizable=0;points=[];autosize=1;strokeColor=none;" parent="V0_J4JzwGfHiOP64WREc-1" vertex="1">
          <mxGeometry x="-569" y="110" width="20" height="20" as="geometry" />
        </mxCell>
        <mxCell id="V0_J4JzwGfHiOP64WREc-30" value="&lt;font face=&quot;Times New Roman&quot;&gt;63&lt;/font&gt;" style="text;html=1;align=center;verticalAlign=middle;resizable=0;points=[];autosize=1;strokeColor=none;" parent="V0_J4JzwGfHiOP64WREc-1" vertex="1">
          <mxGeometry x="-574" y="130" width="30" height="20" as="geometry" />
        </mxCell>
        <mxCell id="V0_J4JzwGfHiOP64WREc-31" value="" style="endArrow=none;html=1;" parent="V0_J4JzwGfHiOP64WREc-1" edge="1">
          <mxGeometry width="50" height="50" relative="1" as="geometry">
            <mxPoint x="-639" y="210" as="sourcePoint" />
            <mxPoint x="-529" y="210" as="targetPoint" />
          </mxGeometry>
        </mxCell>
        <mxCell id="V0_J4JzwGfHiOP64WREc-32" value="&lt;font style=&quot;font-size: 12px&quot; face=&quot;Times New Roman&quot;&gt;&lt;i&gt;P&lt;/i&gt;&lt;sub&gt;2&lt;br&gt;56&lt;br&gt;&lt;/sub&gt;&lt;/font&gt;" style="text;html=1;align=center;verticalAlign=middle;resizable=0;points=[];autosize=1;strokeColor=none;" parent="V0_J4JzwGfHiOP64WREc-1" vertex="1">
          <mxGeometry x="-640" y="171" width="30" height="40" as="geometry" />
        </mxCell>
        <mxCell id="V0_J4JzwGfHiOP64WREc-33" value="" style="endArrow=none;html=1;" parent="V0_J4JzwGfHiOP64WREc-1" edge="1">
          <mxGeometry width="50" height="50" relative="1" as="geometry">
            <mxPoint x="-608" y="149.51999999999998" as="sourcePoint" />
            <mxPoint x="-529" y="149.51999999999998" as="targetPoint" />
          </mxGeometry>
        </mxCell>
        <mxCell id="V0_J4JzwGfHiOP64WREc-34" value="&lt;font face=&quot;Times New Roman&quot;&gt;-5&lt;/font&gt;" style="text;html=1;align=center;verticalAlign=middle;resizable=0;points=[];autosize=1;strokeColor=none;" parent="V0_J4JzwGfHiOP64WREc-1" vertex="1">
          <mxGeometry x="-610" y="150" width="30" height="20" as="geometry" />
        </mxCell>
        <mxCell id="V0_J4JzwGfHiOP64WREc-35" value="&lt;font face=&quot;Times New Roman&quot;&gt;154&lt;/font&gt;" style="text;html=1;align=center;verticalAlign=middle;resizable=0;points=[];autosize=1;strokeColor=none;" parent="V0_J4JzwGfHiOP64WREc-1" vertex="1">
          <mxGeometry x="-574" y="150" width="30" height="20" as="geometry" />
        </mxCell>
        <mxCell id="V0_J4JzwGfHiOP64WREc-36" value="" style="endArrow=none;html=1;" parent="V0_J4JzwGfHiOP64WREc-1" edge="1">
          <mxGeometry width="50" height="50" relative="1" as="geometry">
            <mxPoint x="-608" y="189.76" as="sourcePoint" />
            <mxPoint x="-529" y="189.76" as="targetPoint" />
          </mxGeometry>
        </mxCell>
        <mxCell id="V0_J4JzwGfHiOP64WREc-37" value="&lt;font face=&quot;Times New Roman&quot;&gt;-6&lt;/font&gt;" style="text;html=1;align=center;verticalAlign=middle;resizable=0;points=[];autosize=1;strokeColor=none;" parent="V0_J4JzwGfHiOP64WREc-1" vertex="1">
          <mxGeometry x="-610" y="170" width="30" height="20" as="geometry" />
        </mxCell>
        <mxCell id="V0_J4JzwGfHiOP64WREc-38" value="&lt;font face=&quot;Times New Roman&quot;&gt;-7&lt;/font&gt;" style="text;html=1;align=center;verticalAlign=middle;resizable=0;points=[];autosize=1;strokeColor=none;" parent="V0_J4JzwGfHiOP64WREc-1" vertex="1">
          <mxGeometry x="-610" y="190" width="30" height="20" as="geometry" />
        </mxCell>
        <mxCell id="V0_J4JzwGfHiOP64WREc-39" value="&lt;font face=&quot;Times New Roman&quot;&gt;38&lt;/font&gt;" style="text;html=1;align=center;verticalAlign=middle;resizable=0;points=[];autosize=1;strokeColor=none;" parent="V0_J4JzwGfHiOP64WREc-1" vertex="1">
          <mxGeometry x="-574" y="170" width="30" height="20" as="geometry" />
        </mxCell>
        <mxCell id="V0_J4JzwGfHiOP64WREc-40" value="&lt;font face=&quot;Times New Roman&quot;&gt;18&lt;/font&gt;" style="text;html=1;align=center;verticalAlign=middle;resizable=0;points=[];autosize=1;strokeColor=none;" parent="V0_J4JzwGfHiOP64WREc-1" vertex="1">
          <mxGeometry x="-574" y="190" width="30" height="20" as="geometry" />
        </mxCell>
        <mxCell id="V0_J4JzwGfHiOP64WREc-41" value="" style="endArrow=none;html=1;" parent="V0_J4JzwGfHiOP64WREc-1" edge="1">
          <mxGeometry width="50" height="50" relative="1" as="geometry">
            <mxPoint x="-639" y="270" as="sourcePoint" />
            <mxPoint x="-529" y="270" as="targetPoint" />
          </mxGeometry>
        </mxCell>
        <mxCell id="V0_J4JzwGfHiOP64WREc-42" value="&lt;font style=&quot;font-size: 12px&quot; face=&quot;Times New Roman&quot;&gt;&lt;i&gt;P&lt;/i&gt;&lt;sub&gt;3&lt;br&gt;16&lt;br&gt;&lt;/sub&gt;&lt;/font&gt;" style="text;html=1;align=center;verticalAlign=middle;resizable=0;points=[];autosize=1;strokeColor=none;" parent="V0_J4JzwGfHiOP64WREc-1" vertex="1">
          <mxGeometry x="-640" y="220" width="30" height="40" as="geometry" />
        </mxCell>
        <mxCell id="V0_J4JzwGfHiOP64WREc-43" value="" style="endArrow=none;html=1;" parent="V0_J4JzwGfHiOP64WREc-1" edge="1">
          <mxGeometry width="50" height="50" relative="1" as="geometry">
            <mxPoint x="-608" y="230" as="sourcePoint" />
            <mxPoint x="-529" y="230" as="targetPoint" />
          </mxGeometry>
        </mxCell>
        <mxCell id="V0_J4JzwGfHiOP64WREc-44" value="" style="endArrow=none;html=1;" parent="V0_J4JzwGfHiOP64WREc-1" edge="1">
          <mxGeometry width="50" height="50" relative="1" as="geometry">
            <mxPoint x="-608" y="250" as="sourcePoint" />
            <mxPoint x="-529" y="250" as="targetPoint" />
          </mxGeometry>
        </mxCell>
        <mxCell id="V0_J4JzwGfHiOP64WREc-45" value="&lt;font face=&quot;Times New Roman&quot;&gt;-8&lt;/font&gt;" style="text;html=1;align=center;verticalAlign=middle;resizable=0;points=[];autosize=1;strokeColor=none;" parent="V0_J4JzwGfHiOP64WREc-1" vertex="1">
          <mxGeometry x="-610" y="210" width="30" height="20" as="geometry" />
        </mxCell>
        <mxCell id="V0_J4JzwGfHiOP64WREc-46" value="&lt;font face=&quot;Times New Roman&quot;&gt;-9&lt;/font&gt;" style="text;html=1;align=center;verticalAlign=middle;resizable=0;points=[];autosize=1;strokeColor=none;" parent="V0_J4JzwGfHiOP64WREc-1" vertex="1">
          <mxGeometry x="-610" y="230" width="30" height="20" as="geometry" />
        </mxCell>
        <mxCell id="V0_J4JzwGfHiOP64WREc-47" value="&lt;font face=&quot;Times New Roman&quot;&gt;-10&lt;/font&gt;" style="text;html=1;align=center;verticalAlign=middle;resizable=0;points=[];autosize=1;strokeColor=none;" parent="V0_J4JzwGfHiOP64WREc-1" vertex="1">
          <mxGeometry x="-610" y="250" width="30" height="20" as="geometry" />
        </mxCell>
        <mxCell id="V0_J4JzwGfHiOP64WREc-48" value="&lt;font face=&quot;Times New Roman&quot;&gt;11&lt;/font&gt;" style="text;html=1;align=center;verticalAlign=middle;resizable=0;points=[];autosize=1;strokeColor=none;" parent="V0_J4JzwGfHiOP64WREc-1" vertex="1">
          <mxGeometry x="-574" y="210" width="30" height="20" as="geometry" />
        </mxCell>
        <mxCell id="V0_J4JzwGfHiOP64WREc-49" value="&lt;font face=&quot;Times New Roman&quot;&gt;3&lt;/font&gt;" style="text;html=1;align=center;verticalAlign=middle;resizable=0;points=[];autosize=1;strokeColor=none;" parent="V0_J4JzwGfHiOP64WREc-1" vertex="1">
          <mxGeometry x="-569" y="230" width="20" height="20" as="geometry" />
        </mxCell>
        <mxCell id="V0_J4JzwGfHiOP64WREc-50" value="&lt;font face=&quot;Times New Roman&quot;&gt;2&lt;/font&gt;" style="text;html=1;align=center;verticalAlign=middle;resizable=0;points=[];autosize=1;strokeColor=none;" parent="V0_J4JzwGfHiOP64WREc-1" vertex="1">
          <mxGeometry x="-569" y="250" width="20" height="20" as="geometry" />
        </mxCell>
        <mxCell id="V0_J4JzwGfHiOP64WREc-51" value="" style="endArrow=none;html=1;" parent="V0_J4JzwGfHiOP64WREc-1" edge="1">
          <mxGeometry width="50" height="50" relative="1" as="geometry">
            <mxPoint x="-478" y="79.3" as="sourcePoint" />
            <mxPoint x="-368" y="79.3" as="targetPoint" />
          </mxGeometry>
        </mxCell>
        <mxCell id="V0_J4JzwGfHiOP64WREc-52" value="" style="endArrow=none;html=1;" parent="V0_J4JzwGfHiOP64WREc-1" edge="1">
          <mxGeometry width="50" height="50" relative="1" as="geometry">
            <mxPoint x="-478" y="100.3" as="sourcePoint" />
            <mxPoint x="-368" y="100.3" as="targetPoint" />
          </mxGeometry>
        </mxCell>
        <mxCell id="V0_J4JzwGfHiOP64WREc-53" value="" style="endArrow=none;html=1;exitX=0.075;exitY=1.064;exitDx=0;exitDy=0;exitPerimeter=0;" parent="V0_J4JzwGfHiOP64WREc-1" source="V0_J4JzwGfHiOP64WREc-74" edge="1">
          <mxGeometry width="50" height="50" relative="1" as="geometry">
            <mxPoint x="-447" y="299.29999999999995" as="sourcePoint" />
            <mxPoint x="-447" y="79.3" as="targetPoint" />
          </mxGeometry>
        </mxCell>
        <mxCell id="V0_J4JzwGfHiOP64WREc-54" value="" style="endArrow=none;html=1;exitX=1.013;exitY=1.064;exitDx=0;exitDy=0;exitPerimeter=0;" parent="V0_J4JzwGfHiOP64WREc-1" source="V0_J4JzwGfHiOP64WREc-74" edge="1">
          <mxGeometry width="50" height="50" relative="1" as="geometry">
            <mxPoint x="-419.48" y="300.02" as="sourcePoint" />
            <mxPoint x="-420" y="79.3" as="targetPoint" />
          </mxGeometry>
        </mxCell>
        <mxCell id="V0_J4JzwGfHiOP64WREc-55" value="&lt;font style=&quot;font-size: 12px&quot; face=&quot;Times New Roman&quot;&gt;ID&lt;/font&gt;" style="text;html=1;align=center;verticalAlign=middle;resizable=0;points=[];autosize=1;strokeColor=none;" parent="V0_J4JzwGfHiOP64WREc-1" vertex="1">
          <mxGeometry x="-477" y="80.3" width="30" height="20" as="geometry" />
        </mxCell>
        <mxCell id="V0_J4JzwGfHiOP64WREc-56" value="&lt;font style=&quot;font-size: 14px&quot; face=&quot;Times New Roman&quot;&gt;&lt;i&gt;v&lt;/i&gt;&lt;/font&gt;" style="text;html=1;align=center;verticalAlign=middle;resizable=0;points=[];autosize=1;strokeColor=none;" parent="V0_J4JzwGfHiOP64WREc-1" vertex="1">
          <mxGeometry x="-444" y="80.3" width="20" height="20" as="geometry" />
        </mxCell>
        <mxCell id="V0_J4JzwGfHiOP64WREc-57" value="&lt;font style=&quot;font-size: 14px&quot; face=&quot;Times New Roman&quot;&gt;count&lt;/font&gt;" style="text;html=1;align=center;verticalAlign=middle;resizable=0;points=[];autosize=1;strokeColor=none;" parent="V0_J4JzwGfHiOP64WREc-1" vertex="1">
          <mxGeometry x="-419" y="80.3" width="50" height="20" as="geometry" />
        </mxCell>
        <mxCell id="V0_J4JzwGfHiOP64WREc-58" value="&lt;font style=&quot;font-size: 12px&quot; face=&quot;Times New Roman&quot;&gt;&lt;i&gt;P&lt;/i&gt;&lt;/font&gt;&lt;font style=&quot;font-size: 6px&quot; face=&quot;Times New Roman&quot;&gt;&lt;sub&gt;1&lt;/sub&gt;&lt;/font&gt;" style="text;html=1;align=center;verticalAlign=middle;resizable=0;points=[];autosize=1;strokeColor=none;" parent="V0_J4JzwGfHiOP64WREc-1" vertex="1">
          <mxGeometry x="-477" y="109.3" width="30" height="20" as="geometry" />
        </mxCell>
        <mxCell id="V0_J4JzwGfHiOP64WREc-59" value="" style="endArrow=none;html=1;" parent="V0_J4JzwGfHiOP64WREc-1" edge="1">
          <mxGeometry width="50" height="50" relative="1" as="geometry">
            <mxPoint x="-447" y="119.3" as="sourcePoint" />
            <mxPoint x="-368" y="119.3" as="targetPoint" />
          </mxGeometry>
        </mxCell>
        <mxCell id="V0_J4JzwGfHiOP64WREc-60" value="&lt;font face=&quot;Times New Roman&quot;&gt;-5&lt;/font&gt;" style="text;html=1;align=center;verticalAlign=middle;resizable=0;points=[];autosize=1;strokeColor=none;" parent="V0_J4JzwGfHiOP64WREc-1" vertex="1">
          <mxGeometry x="-449" y="99.3" width="30" height="20" as="geometry" />
        </mxCell>
        <mxCell id="V0_J4JzwGfHiOP64WREc-61" value="&lt;font face=&quot;Times New Roman&quot;&gt;-6&lt;/font&gt;" style="text;html=1;align=center;verticalAlign=middle;resizable=0;points=[];autosize=1;strokeColor=none;" parent="V0_J4JzwGfHiOP64WREc-1" vertex="1">
          <mxGeometry x="-449" y="119.3" width="30" height="20" as="geometry" />
        </mxCell>
        <mxCell id="V0_J4JzwGfHiOP64WREc-62" value="&lt;font face=&quot;Times New Roman&quot;&gt;-7&lt;/font&gt;" style="text;html=1;align=center;verticalAlign=middle;resizable=0;points=[];autosize=1;strokeColor=none;" parent="V0_J4JzwGfHiOP64WREc-1" vertex="1">
          <mxGeometry x="-449" y="139.30000000000004" width="30" height="20" as="geometry" />
        </mxCell>
        <mxCell id="V0_J4JzwGfHiOP64WREc-63" value="&lt;font face=&quot;Times New Roman&quot;&gt;-8&lt;/font&gt;" style="text;html=1;align=center;verticalAlign=middle;resizable=0;points=[];autosize=1;strokeColor=none;" parent="V0_J4JzwGfHiOP64WREc-1" vertex="1">
          <mxGeometry x="-449" y="159.30000000000004" width="30" height="20" as="geometry" />
        </mxCell>
        <mxCell id="V0_J4JzwGfHiOP64WREc-64" value="&lt;font face=&quot;Times New Roman&quot;&gt;165&lt;/font&gt;" style="text;html=1;align=center;verticalAlign=middle;resizable=0;points=[];autosize=1;strokeColor=none;" parent="V0_J4JzwGfHiOP64WREc-1" vertex="1">
          <mxGeometry x="-413" y="99.3" width="30" height="20" as="geometry" />
        </mxCell>
        <mxCell id="V0_J4JzwGfHiOP64WREc-65" value="&lt;font face=&quot;Times New Roman&quot;&gt;63&lt;/font&gt;" style="text;html=1;align=center;verticalAlign=middle;resizable=0;points=[];autosize=1;strokeColor=none;" parent="V0_J4JzwGfHiOP64WREc-1" vertex="1">
          <mxGeometry x="-413" y="119.3" width="30" height="20" as="geometry" />
        </mxCell>
        <mxCell id="V0_J4JzwGfHiOP64WREc-66" value="&lt;font face=&quot;Times New Roman&quot;&gt;51&lt;/font&gt;" style="text;html=1;align=center;verticalAlign=middle;resizable=0;points=[];autosize=1;strokeColor=none;" parent="V0_J4JzwGfHiOP64WREc-1" vertex="1">
          <mxGeometry x="-413" y="139.30000000000004" width="30" height="20" as="geometry" />
        </mxCell>
        <mxCell id="V0_J4JzwGfHiOP64WREc-67" value="&lt;font face=&quot;Times New Roman&quot;&gt;16&lt;/font&gt;" style="text;html=1;align=center;verticalAlign=middle;resizable=0;points=[];autosize=1;strokeColor=none;" parent="V0_J4JzwGfHiOP64WREc-1" vertex="1">
          <mxGeometry x="-413" y="159.30000000000004" width="30" height="20" as="geometry" />
        </mxCell>
        <mxCell id="V0_J4JzwGfHiOP64WREc-68" value="" style="endArrow=none;html=1;" parent="V0_J4JzwGfHiOP64WREc-1" edge="1">
          <mxGeometry width="50" height="50" relative="1" as="geometry">
            <mxPoint x="-477" y="240.3" as="sourcePoint" />
            <mxPoint x="-367" y="240.3" as="targetPoint" />
          </mxGeometry>
        </mxCell>
        <mxCell id="V0_J4JzwGfHiOP64WREc-69" value="&lt;font face=&quot;Times New Roman&quot;&gt;&lt;i&gt;P&lt;/i&gt;&lt;span style=&quot;font-size: 10px&quot;&gt;&lt;sub&gt;4&lt;/sub&gt;&lt;/span&gt;&lt;/font&gt;" style="text;html=1;align=center;verticalAlign=middle;resizable=0;points=[];autosize=1;strokeColor=none;" parent="V0_J4JzwGfHiOP64WREc-1" vertex="1">
          <mxGeometry x="-479" y="199.3" width="30" height="20" as="geometry" />
        </mxCell>
        <mxCell id="V0_J4JzwGfHiOP64WREc-70" value="&lt;font face=&quot;Times New Roman&quot;&gt;-9&lt;/font&gt;" style="text;html=1;align=center;verticalAlign=middle;resizable=0;points=[];autosize=1;strokeColor=none;" parent="V0_J4JzwGfHiOP64WREc-1" vertex="1">
          <mxGeometry x="-449" y="179.3" width="30" height="20" as="geometry" />
        </mxCell>
        <mxCell id="V0_J4JzwGfHiOP64WREc-71" value="&lt;font face=&quot;Times New Roman&quot;&gt;2&lt;/font&gt;" style="text;html=1;align=center;verticalAlign=middle;resizable=0;points=[];autosize=1;strokeColor=none;" parent="V0_J4JzwGfHiOP64WREc-1" vertex="1">
          <mxGeometry x="-408" y="179.3" width="20" height="20" as="geometry" />
        </mxCell>
        <mxCell id="V0_J4JzwGfHiOP64WREc-72" value="" style="endArrow=none;html=1;" parent="V0_J4JzwGfHiOP64WREc-1" edge="1">
          <mxGeometry width="50" height="50" relative="1" as="geometry">
            <mxPoint x="-446" y="219.06" as="sourcePoint" />
            <mxPoint x="-367" y="219.06" as="targetPoint" />
          </mxGeometry>
        </mxCell>
        <mxCell id="V0_J4JzwGfHiOP64WREc-73" value="&lt;font face=&quot;Times New Roman&quot;&gt;-10&lt;/font&gt;" style="text;html=1;align=center;verticalAlign=middle;resizable=0;points=[];autosize=1;strokeColor=none;" parent="V0_J4JzwGfHiOP64WREc-1" vertex="1">
          <mxGeometry x="-449" y="199.3" width="30" height="20" as="geometry" />
        </mxCell>
        <mxCell id="V0_J4JzwGfHiOP64WREc-74" value="&lt;font face=&quot;Times New Roman&quot;&gt;-11&lt;/font&gt;" style="text;html=1;align=center;verticalAlign=middle;resizable=0;points=[];autosize=1;strokeColor=none;" parent="V0_J4JzwGfHiOP64WREc-1" vertex="1">
          <mxGeometry x="-449" y="219.3" width="30" height="20" as="geometry" />
        </mxCell>
        <mxCell id="V0_J4JzwGfHiOP64WREc-75" value="&lt;font face=&quot;Times New Roman&quot;&gt;3&lt;/font&gt;" style="text;html=1;align=center;verticalAlign=middle;resizable=0;points=[];autosize=1;strokeColor=none;" parent="V0_J4JzwGfHiOP64WREc-1" vertex="1">
          <mxGeometry x="-408" y="199.3" width="20" height="20" as="geometry" />
        </mxCell>
        <mxCell id="V0_J4JzwGfHiOP64WREc-76" value="&lt;font face=&quot;Times New Roman&quot;&gt;2&lt;/font&gt;" style="text;html=1;align=center;verticalAlign=middle;resizable=0;points=[];autosize=1;strokeColor=none;" parent="V0_J4JzwGfHiOP64WREc-1" vertex="1">
          <mxGeometry x="-408" y="219.3" width="20" height="20" as="geometry" />
        </mxCell>
        <mxCell id="V0_J4JzwGfHiOP64WREc-77" value="&lt;font style=&quot;font-size: 12px&quot; face=&quot;Times New Roman&quot;&gt;&lt;i&gt;P&lt;/i&gt;&lt;sub&gt;3&lt;/sub&gt;&lt;/font&gt;" style="text;html=1;align=center;verticalAlign=middle;resizable=0;points=[];autosize=1;strokeColor=none;" parent="V0_J4JzwGfHiOP64WREc-1" vertex="1">
          <mxGeometry x="-479" y="159.30000000000004" width="30" height="20" as="geometry" />
        </mxCell>
        <mxCell id="V0_J4JzwGfHiOP64WREc-78" value="" style="endArrow=none;html=1;" parent="V0_J4JzwGfHiOP64WREc-1" edge="1">
          <mxGeometry width="50" height="50" relative="1" as="geometry">
            <mxPoint x="-478" y="139.29999999999998" as="sourcePoint" />
            <mxPoint x="-368" y="139.29999999999998" as="targetPoint" />
          </mxGeometry>
        </mxCell>
        <mxCell id="V0_J4JzwGfHiOP64WREc-79" value="&lt;font style=&quot;font-size: 12px&quot; face=&quot;Times New Roman&quot;&gt;&lt;i&gt;P&lt;/i&gt;&lt;sub&gt;2&lt;/sub&gt;&lt;/font&gt;" style="text;html=1;align=center;verticalAlign=middle;resizable=0;points=[];autosize=1;strokeColor=none;" parent="V0_J4JzwGfHiOP64WREc-1" vertex="1">
          <mxGeometry x="-479" y="139.30000000000004" width="30" height="20" as="geometry" />
        </mxCell>
        <mxCell id="V0_J4JzwGfHiOP64WREc-80" value="" style="endArrow=none;html=1;" parent="V0_J4JzwGfHiOP64WREc-1" edge="1">
          <mxGeometry width="50" height="50" relative="1" as="geometry">
            <mxPoint x="-478" y="159.30000000000004" as="sourcePoint" />
            <mxPoint x="-368" y="159.30000000000004" as="targetPoint" />
          </mxGeometry>
        </mxCell>
        <mxCell id="V0_J4JzwGfHiOP64WREc-81" value="" style="endArrow=none;html=1;" parent="V0_J4JzwGfHiOP64WREc-1" edge="1">
          <mxGeometry width="50" height="50" relative="1" as="geometry">
            <mxPoint x="-478" y="179.3" as="sourcePoint" />
            <mxPoint x="-368" y="179.3" as="targetPoint" />
          </mxGeometry>
        </mxCell>
        <mxCell id="V0_J4JzwGfHiOP64WREc-82" value="" style="endArrow=none;html=1;" parent="V0_J4JzwGfHiOP64WREc-1" edge="1">
          <mxGeometry width="50" height="50" relative="1" as="geometry">
            <mxPoint x="-447" y="199.3" as="sourcePoint" />
            <mxPoint x="-368" y="199.3" as="targetPoint" />
          </mxGeometry>
        </mxCell>
        <mxCell id="V0_J4JzwGfHiOP64WREc-83" value="" style="endArrow=none;html=1;exitX=1.013;exitY=1.064;exitDx=0;exitDy=0;exitPerimeter=0;" parent="V0_J4JzwGfHiOP64WREc-1" edge="1">
          <mxGeometry width="50" height="50" relative="1" as="geometry">
            <mxPoint x="-366.6099999999999" y="240.57999999999998" as="sourcePoint" />
            <mxPoint x="-368" y="79.3" as="targetPoint" />
          </mxGeometry>
        </mxCell>
        <mxCell id="V0_J4JzwGfHiOP64WREc-84" value="" style="endArrow=none;html=1;exitX=1.013;exitY=1.064;exitDx=0;exitDy=0;exitPerimeter=0;" parent="V0_J4JzwGfHiOP64WREc-1" edge="1">
          <mxGeometry width="50" height="50" relative="1" as="geometry">
            <mxPoint x="-476.9999999999999" y="240.29999999999998" as="sourcePoint" />
            <mxPoint x="-478.39" y="79.02" as="targetPoint" />
          </mxGeometry>
        </mxCell>
        <mxCell id="V0_J4JzwGfHiOP64WREc-85" value="" style="endArrow=classic;html=1;fillColor=#FF0000;strokeColor=#FF0000;" parent="V0_J4JzwGfHiOP64WREc-1" edge="1">
          <mxGeometry width="50" height="50" relative="1" as="geometry">
            <mxPoint x="-367" y="119.3" as="sourcePoint" />
            <mxPoint x="-318" y="88.3" as="targetPoint" />
          </mxGeometry>
        </mxCell>
        <mxCell id="V0_J4JzwGfHiOP64WREc-86" value="" style="endArrow=classic;html=1;strokeColor=#FF0000;" parent="V0_J4JzwGfHiOP64WREc-1" edge="1">
          <mxGeometry width="50" height="50" relative="1" as="geometry">
            <mxPoint x="-367" y="150.3" as="sourcePoint" />
            <mxPoint x="-319" y="190" as="targetPoint" />
          </mxGeometry>
        </mxCell>
        <mxCell id="V0_J4JzwGfHiOP64WREc-87" value="" style="endArrow=none;dashed=1;html=1;" parent="V0_J4JzwGfHiOP64WREc-1" edge="1">
          <mxGeometry width="50" height="50" relative="1" as="geometry">
            <mxPoint x="-228.5" y="199.92000000000002" as="sourcePoint" />
            <mxPoint x="-309.5" y="199.92000000000002" as="targetPoint" />
          </mxGeometry>
        </mxCell>
        <mxCell id="V0_J4JzwGfHiOP64WREc-88" value="" style="endArrow=none;dashed=1;html=1;" parent="V0_J4JzwGfHiOP64WREc-1" edge="1">
          <mxGeometry width="50" height="50" relative="1" as="geometry">
            <mxPoint x="-228.5" y="259.14" as="sourcePoint" />
            <mxPoint x="-309.5" y="259.14" as="targetPoint" />
          </mxGeometry>
        </mxCell>
        <mxCell id="V0_J4JzwGfHiOP64WREc-89" value="" style="endArrow=none;dashed=1;html=1;" parent="V0_J4JzwGfHiOP64WREc-1" edge="1">
          <mxGeometry width="50" height="50" relative="1" as="geometry">
            <mxPoint x="-238.4999999999999" y="270.0799999999999" as="sourcePoint" />
            <mxPoint x="-238.4999999999999" y="190.08" as="targetPoint" />
          </mxGeometry>
        </mxCell>
        <mxCell id="V0_J4JzwGfHiOP64WREc-90" value="" style="ellipse;whiteSpace=wrap;html=1;aspect=fixed;shadow=0;fillColor=#FFFFFF;strokeColor=#66B2FF;" parent="V0_J4JzwGfHiOP64WREc-1" vertex="1">
          <mxGeometry x="-316" y="202.3" width="56" height="56" as="geometry" />
        </mxCell>
        <mxCell id="V0_J4JzwGfHiOP64WREc-91" value="" style="endArrow=none;dashed=1;html=1;" parent="V0_J4JzwGfHiOP64WREc-1" edge="1">
          <mxGeometry width="50" height="50" relative="1" as="geometry">
            <mxPoint x="-228.5" y="219.14" as="sourcePoint" />
            <mxPoint x="-309.5" y="219.14" as="targetPoint" />
          </mxGeometry>
        </mxCell>
        <mxCell id="V0_J4JzwGfHiOP64WREc-92" value="" style="endArrow=none;dashed=1;html=1;" parent="V0_J4JzwGfHiOP64WREc-1" edge="1">
          <mxGeometry width="50" height="50" relative="1" as="geometry">
            <mxPoint x="-228.5" y="239.14" as="sourcePoint" />
            <mxPoint x="-309.5" y="239.14" as="targetPoint" />
          </mxGeometry>
        </mxCell>
        <mxCell id="V0_J4JzwGfHiOP64WREc-93" value="" style="endArrow=none;dashed=1;html=1;" parent="V0_J4JzwGfHiOP64WREc-1" edge="1">
          <mxGeometry width="50" height="50" relative="1" as="geometry">
            <mxPoint x="-278.4999999999999" y="270.0799999999999" as="sourcePoint" />
            <mxPoint x="-278.4999999999999" y="190.08000000000004" as="targetPoint" />
          </mxGeometry>
        </mxCell>
        <mxCell id="V0_J4JzwGfHiOP64WREc-94" value="" style="endArrow=none;dashed=1;html=1;" parent="V0_J4JzwGfHiOP64WREc-1" edge="1">
          <mxGeometry width="50" height="50" relative="1" as="geometry">
            <mxPoint x="-258.4999999999999" y="270.0799999999999" as="sourcePoint" />
            <mxPoint x="-258.4999999999999" y="190.08" as="targetPoint" />
          </mxGeometry>
        </mxCell>
        <mxCell id="V0_J4JzwGfHiOP64WREc-95" value="" style="shape=waypoint;sketch=0;fillStyle=solid;size=6;pointerEvents=1;points=[];fillColor=none;resizable=0;rotatable=0;perimeter=centerPerimeter;snapToPoint=1;strokeColor=#009900;fontSize=1;" parent="V0_J4JzwGfHiOP64WREc-1" vertex="1">
          <mxGeometry x="-268" y="190.00000000000006" width="40" height="40" as="geometry" />
        </mxCell>
        <mxCell id="V0_J4JzwGfHiOP64WREc-96" value="" style="endArrow=none;dashed=1;html=1;" parent="V0_J4JzwGfHiOP64WREc-1" edge="1">
          <mxGeometry width="50" height="50" relative="1" as="geometry">
            <mxPoint x="-140" y="41.3" as="sourcePoint" />
            <mxPoint x="-320" y="41.3" as="targetPoint" />
          </mxGeometry>
        </mxCell>
        <mxCell id="V0_J4JzwGfHiOP64WREc-97" value="" style="endArrow=none;dashed=1;html=1;" parent="V0_J4JzwGfHiOP64WREc-1" edge="1">
          <mxGeometry width="50" height="50" relative="1" as="geometry">
            <mxPoint x="-140" y="79.3" as="sourcePoint" />
            <mxPoint x="-320" y="79.3" as="targetPoint" />
          </mxGeometry>
        </mxCell>
        <mxCell id="V0_J4JzwGfHiOP64WREc-98" value="" style="endArrow=none;dashed=1;html=1;" parent="V0_J4JzwGfHiOP64WREc-1" edge="1">
          <mxGeometry width="50" height="50" relative="1" as="geometry">
            <mxPoint x="-140" y="120.3" as="sourcePoint" />
            <mxPoint x="-320" y="120.3" as="targetPoint" />
          </mxGeometry>
        </mxCell>
        <mxCell id="V0_J4JzwGfHiOP64WREc-99" value="" style="endArrow=none;dashed=1;html=1;" parent="V0_J4JzwGfHiOP64WREc-1" edge="1">
          <mxGeometry width="50" height="50" relative="1" as="geometry">
            <mxPoint x="-290" y="179.3" as="sourcePoint" />
            <mxPoint x="-290" y="19.3" as="targetPoint" />
          </mxGeometry>
        </mxCell>
        <mxCell id="V0_J4JzwGfHiOP64WREc-100" value="" style="endArrow=none;dashed=1;html=1;" parent="V0_J4JzwGfHiOP64WREc-1" edge="1">
          <mxGeometry width="50" height="50" relative="1" as="geometry">
            <mxPoint x="-250" y="179.3" as="sourcePoint" />
            <mxPoint x="-250" y="19.3" as="targetPoint" />
          </mxGeometry>
        </mxCell>
        <mxCell id="V0_J4JzwGfHiOP64WREc-101" value="" style="endArrow=none;dashed=1;html=1;" parent="V0_J4JzwGfHiOP64WREc-1" edge="1">
          <mxGeometry width="50" height="50" relative="1" as="geometry">
            <mxPoint x="-210" y="179.3" as="sourcePoint" />
            <mxPoint x="-210" y="19.3" as="targetPoint" />
          </mxGeometry>
        </mxCell>
        <mxCell id="V0_J4JzwGfHiOP64WREc-102" value="" style="endArrow=none;dashed=1;html=1;" parent="V0_J4JzwGfHiOP64WREc-1" edge="1">
          <mxGeometry width="50" height="50" relative="1" as="geometry">
            <mxPoint x="-170" y="179.3" as="sourcePoint" />
            <mxPoint x="-170" y="19.3" as="targetPoint" />
          </mxGeometry>
        </mxCell>
        <mxCell id="V0_J4JzwGfHiOP64WREc-103" value="" style="endArrow=none;html=1;shadow=0;" parent="V0_J4JzwGfHiOP64WREc-1" edge="1">
          <mxGeometry width="50" height="50" relative="1" as="geometry">
            <mxPoint x="-290" y="79.67" as="sourcePoint" />
            <mxPoint x="-170" y="79.67" as="targetPoint" />
          </mxGeometry>
        </mxCell>
        <mxCell id="V0_J4JzwGfHiOP64WREc-104" value="" style="endArrow=none;html=1;shadow=0;" parent="V0_J4JzwGfHiOP64WREc-1" edge="1">
          <mxGeometry width="50" height="50" relative="1" as="geometry">
            <mxPoint x="-290" y="120" as="sourcePoint" />
            <mxPoint x="-170" y="120" as="targetPoint" />
          </mxGeometry>
        </mxCell>
        <mxCell id="V0_J4JzwGfHiOP64WREc-105" value="" style="endArrow=none;html=1;shadow=0;" parent="V0_J4JzwGfHiOP64WREc-1" edge="1">
          <mxGeometry width="50" height="50" relative="1" as="geometry">
            <mxPoint x="-250" y="40.99999999999997" as="sourcePoint" />
            <mxPoint x="-250" y="160.80000813802084" as="targetPoint" />
          </mxGeometry>
        </mxCell>
        <mxCell id="V0_J4JzwGfHiOP64WREc-106" value="" style="endArrow=none;html=1;shadow=0;" parent="V0_J4JzwGfHiOP64WREc-1" edge="1">
          <mxGeometry width="50" height="50" relative="1" as="geometry">
            <mxPoint x="-210" y="41.79999999999997" as="sourcePoint" />
            <mxPoint x="-210" y="161.60000813802085" as="targetPoint" />
          </mxGeometry>
        </mxCell>
        <mxCell id="V0_J4JzwGfHiOP64WREc-107" value="" style="shape=waypoint;sketch=0;fillStyle=solid;size=6;pointerEvents=1;points=[];fillColor=none;resizable=0;rotatable=0;perimeter=centerPerimeter;snapToPoint=1;strokeColor=#009900;" parent="V0_J4JzwGfHiOP64WREc-1" vertex="1">
          <mxGeometry x="-240.00000000000006" y="93.99999999999997" width="40" height="40" as="geometry" />
        </mxCell>
        <mxCell id="V0_J4JzwGfHiOP64WREc-108" value="" style="shape=waypoint;sketch=0;fillStyle=solid;size=6;pointerEvents=1;points=[];fillColor=none;resizable=0;rotatable=0;perimeter=centerPerimeter;snapToPoint=1;strokeColor=#009900;" parent="V0_J4JzwGfHiOP64WREc-1" vertex="1">
          <mxGeometry x="-258.00000000000006" y="80.49999999999997" width="40" height="40" as="geometry" />
        </mxCell>
        <mxCell id="V0_J4JzwGfHiOP64WREc-109" value="" style="endArrow=classic;html=1;shadow=0;strokeColor=#FFFFFF;" parent="V0_J4JzwGfHiOP64WREc-1" edge="1">
          <mxGeometry width="50" height="50" relative="1" as="geometry">
            <mxPoint x="-720" y="285" as="sourcePoint" />
            <mxPoint x="-670" y="235" as="targetPoint" />
          </mxGeometry>
        </mxCell>
        <mxCell id="V0_J4JzwGfHiOP64WREc-110" value="" style="shape=partialRectangle;whiteSpace=wrap;html=1;top=0;left=0;fillColor=none;shadow=0;strokeColor=#EA6B66;direction=south;" parent="V0_J4JzwGfHiOP64WREc-1" vertex="1">
          <mxGeometry x="-680" y="100" width="40" height="125" as="geometry" />
        </mxCell>
        <mxCell id="V0_J4JzwGfHiOP64WREc-111" value="" style="shape=partialRectangle;whiteSpace=wrap;html=1;top=0;left=0;fillColor=none;shadow=0;strokeColor=#0000CC;direction=south;" parent="V0_J4JzwGfHiOP64WREc-1" vertex="1">
          <mxGeometry x="-660" y="120" width="20" height="60" as="geometry" />
        </mxCell>
        <mxCell id="V0_J4JzwGfHiOP64WREc-112" value="" style="endArrow=classic;html=1;shadow=0;strokeColor=#EA6B66;exitX=0.783;exitY=0.997;exitDx=0;exitDy=0;exitPerimeter=0;" parent="V0_J4JzwGfHiOP64WREc-1" edge="1">
          <mxGeometry width="50" height="50" relative="1" as="geometry">
            <mxPoint x="-679.88" y="198.87500000000006" as="sourcePoint" />
            <mxPoint x="-639" y="198.71" as="targetPoint" />
          </mxGeometry>
        </mxCell>
        <mxCell id="V0_J4JzwGfHiOP64WREc-113" value="" style="endArrow=classic;html=1;shadow=0;strokeColor=#EA6B66;" parent="V0_J4JzwGfHiOP64WREc-1" edge="1">
          <mxGeometry width="50" height="50" relative="1" as="geometry">
            <mxPoint x="-680" y="99.86" as="sourcePoint" />
            <mxPoint x="-638" y="100" as="targetPoint" />
          </mxGeometry>
        </mxCell>
        <mxCell id="V0_J4JzwGfHiOP64WREc-114" value="" style="endArrow=classic;html=1;shadow=0;strokeColor=#0000CC;fillColor=#0000FF;entryX=1.05;entryY=0.94;entryDx=0;entryDy=0;entryPerimeter=0;" parent="V0_J4JzwGfHiOP64WREc-1" edge="1">
          <mxGeometry width="50" height="50" relative="1" as="geometry">
            <mxPoint x="-660" y="119.75999999999999" as="sourcePoint" />
            <mxPoint x="-638.5" y="119.79999999999998" as="targetPoint" />
          </mxGeometry>
        </mxCell>
        <mxCell id="V0_J4JzwGfHiOP64WREc-115" value="&lt;font face=&quot;Times New Roman&quot;&gt;&lt;font style=&quot;font-size: 14px&quot;&gt;&lt;i&gt;r&lt;/i&gt;&lt;/font&gt;&lt;sub&gt;&lt;font style=&quot;font-size: 10px&quot;&gt;1&lt;/font&gt;&lt;/sub&gt;&lt;/font&gt;" style="text;html=1;align=center;verticalAlign=middle;resizable=0;points=[];autosize=1;strokeColor=none;" parent="V0_J4JzwGfHiOP64WREc-1" vertex="1">
          <mxGeometry x="-670" y="81" width="30" height="20" as="geometry" />
        </mxCell>
        <mxCell id="V0_J4JzwGfHiOP64WREc-116" value="&lt;span style=&quot;color: rgb(0 , 0 , 0) ; font-family: &amp;#34;times new roman&amp;#34; ; font-weight: 400 ; letter-spacing: normal ; text-align: center ; text-indent: 0px ; text-transform: none ; word-spacing: 0px ; background-color: rgb(248 , 249 , 250) ; display: inline ; float: none&quot;&gt;&lt;font style=&quot;font-size: 14px&quot;&gt;&lt;i&gt;r&lt;/i&gt;&lt;/font&gt;&lt;/span&gt;&lt;span style=&quot;color: rgb(0 , 0 , 0) ; font-family: &amp;#34;times new roman&amp;#34; ; font-style: normal ; font-weight: 400 ; letter-spacing: normal ; text-align: center ; text-indent: 0px ; text-transform: none ; word-spacing: 0px ; background-color: rgb(248 , 249 , 250) ; display: inline ; float: none ; font-size: 10px&quot;&gt;&lt;sub&gt;2&lt;/sub&gt;&lt;/span&gt;" style="text;whiteSpace=wrap;html=1;" parent="V0_J4JzwGfHiOP64WREc-1" vertex="1">
          <mxGeometry x="-662" y="174.3" width="40" height="30" as="geometry" />
        </mxCell>
        <mxCell id="V0_J4JzwGfHiOP64WREc-117" value="&lt;font face=&quot;Times New Roman&quot;&gt;&lt;font style=&quot;font-size: 14px&quot;&gt;&lt;i&gt;r&lt;/i&gt;&lt;/font&gt;&lt;sub&gt;&lt;font style=&quot;font-size: 10px&quot;&gt;1&lt;/font&gt;&lt;/sub&gt;&lt;/font&gt;" style="text;html=1;align=center;verticalAlign=middle;resizable=0;points=[];autosize=1;strokeColor=none;" parent="V0_J4JzwGfHiOP64WREc-1" vertex="1">
          <mxGeometry x="-670" y="101" width="30" height="20" as="geometry" />
        </mxCell>
        <mxCell id="V0_J4JzwGfHiOP64WREc-118" value="" style="endArrow=none;dashed=1;html=1;" parent="V0_J4JzwGfHiOP64WREc-1" edge="1">
          <mxGeometry width="50" height="50" relative="1" as="geometry">
            <mxPoint x="-298.4999999999999" y="269.99999999999994" as="sourcePoint" />
            <mxPoint x="-298.4999999999999" y="190.00000000000003" as="targetPoint" />
          </mxGeometry>
        </mxCell>
        <mxCell id="V0_J4JzwGfHiOP64WREc-119" value="" style="shape=waypoint;sketch=0;fillStyle=solid;size=6;pointerEvents=1;points=[];fillColor=#CCCCCC;resizable=0;rotatable=0;perimeter=centerPerimeter;snapToPoint=1;strokeColor=#009900;" parent="V0_J4JzwGfHiOP64WREc-1" vertex="1">
          <mxGeometry x="-210.00000000000006" y="90.99999999999997" width="40" height="40" as="geometry" />
        </mxCell>
        <mxCell id="V0_J4JzwGfHiOP64WREc-120" value="&lt;font face=&quot;Times New Roman&quot; style=&quot;font-size: 14px&quot;&gt;$$C^1_1$$&lt;/font&gt;" style="text;html=1;align=center;verticalAlign=middle;resizable=0;points=[];autosize=1;strokeColor=none;" parent="V0_J4JzwGfHiOP64WREc-1" vertex="1">
          <mxGeometry x="-221" y="42.5" width="80" height="20" as="geometry" />
        </mxCell>
      </root>
    </mxGraphModel>
  </diagram>
  <diagram name="Copy of Page-1" id="XxPEHHByqiDYJI2ByPwB">
    <mxGraphModel dx="2889" dy="1154" grid="1" gridSize="10" guides="1" tooltips="1" connect="1" arrows="1" fold="1" page="1" pageScale="1" pageWidth="827" pageHeight="1169" math="0" shadow="0">
      <root>
        <mxCell id="aGjMHbDexL6P9dqdABGp-0" />
        <mxCell id="aGjMHbDexL6P9dqdABGp-1" parent="aGjMHbDexL6P9dqdABGp-0" />
        <mxCell id="aGjMHbDexL6P9dqdABGp-2" value="" style="endArrow=none;html=1;" parent="aGjMHbDexL6P9dqdABGp-1" edge="1">
          <mxGeometry width="50" height="50" relative="1" as="geometry">
            <mxPoint x="-800" y="260" as="sourcePoint" />
            <mxPoint x="-800" y="40" as="targetPoint" />
          </mxGeometry>
        </mxCell>
        <mxCell id="aGjMHbDexL6P9dqdABGp-3" value="" style="endArrow=none;html=1;" parent="aGjMHbDexL6P9dqdABGp-1" edge="1">
          <mxGeometry width="50" height="50" relative="1" as="geometry">
            <mxPoint x="-800" y="40" as="sourcePoint" />
            <mxPoint x="-690" y="40" as="targetPoint" />
          </mxGeometry>
        </mxCell>
        <mxCell id="aGjMHbDexL6P9dqdABGp-4" value="" style="endArrow=none;html=1;" parent="aGjMHbDexL6P9dqdABGp-1" edge="1">
          <mxGeometry width="50" height="50" relative="1" as="geometry">
            <mxPoint x="-800" y="61" as="sourcePoint" />
            <mxPoint x="-690" y="61" as="targetPoint" />
          </mxGeometry>
        </mxCell>
        <mxCell id="aGjMHbDexL6P9dqdABGp-5" value="" style="endArrow=none;html=1;" parent="aGjMHbDexL6P9dqdABGp-1" edge="1">
          <mxGeometry width="50" height="50" relative="1" as="geometry">
            <mxPoint x="-690" y="260" as="sourcePoint" />
            <mxPoint x="-690" y="40" as="targetPoint" />
          </mxGeometry>
        </mxCell>
        <mxCell id="aGjMHbDexL6P9dqdABGp-6" value="" style="endArrow=none;html=1;exitX=0.032;exitY=0.998;exitDx=0;exitDy=0;exitPerimeter=0;" parent="aGjMHbDexL6P9dqdABGp-1" source="aGjMHbDexL6P9dqdABGp-40" edge="1">
          <mxGeometry width="50" height="50" relative="1" as="geometry">
            <mxPoint x="-769" y="480" as="sourcePoint" />
            <mxPoint x="-769" y="40" as="targetPoint" />
          </mxGeometry>
        </mxCell>
        <mxCell id="aGjMHbDexL6P9dqdABGp-7" value="" style="endArrow=none;html=1;exitX=0.984;exitY=1.036;exitDx=0;exitDy=0;exitPerimeter=0;" parent="aGjMHbDexL6P9dqdABGp-1" source="aGjMHbDexL6P9dqdABGp-40" edge="1">
          <mxGeometry width="50" height="50" relative="1" as="geometry">
            <mxPoint x="-742" y="480" as="sourcePoint" />
            <mxPoint x="-742" y="40" as="targetPoint" />
          </mxGeometry>
        </mxCell>
        <mxCell id="aGjMHbDexL6P9dqdABGp-8" value="&lt;font style=&quot;font-size: 12px&quot; face=&quot;Times New Roman&quot;&gt;ID&lt;/font&gt;" style="text;html=1;align=center;verticalAlign=middle;resizable=0;points=[];autosize=1;strokeColor=none;" parent="aGjMHbDexL6P9dqdABGp-1" vertex="1">
          <mxGeometry x="-799" y="41" width="30" height="20" as="geometry" />
        </mxCell>
        <mxCell id="aGjMHbDexL6P9dqdABGp-9" value="&lt;font style=&quot;font-size: 14px&quot; face=&quot;Times New Roman&quot;&gt;&lt;i&gt;v&lt;/i&gt;&lt;/font&gt;" style="text;html=1;align=center;verticalAlign=middle;resizable=0;points=[];autosize=1;strokeColor=none;" parent="aGjMHbDexL6P9dqdABGp-1" vertex="1">
          <mxGeometry x="-766" y="41" width="20" height="20" as="geometry" />
        </mxCell>
        <mxCell id="aGjMHbDexL6P9dqdABGp-10" value="&lt;font style=&quot;font-size: 14px&quot; face=&quot;Times New Roman&quot;&gt;count&lt;/font&gt;" style="text;html=1;align=center;verticalAlign=middle;resizable=0;points=[];autosize=1;strokeColor=none;" parent="aGjMHbDexL6P9dqdABGp-1" vertex="1">
          <mxGeometry x="-743" y="41" width="50" height="20" as="geometry" />
        </mxCell>
        <mxCell id="aGjMHbDexL6P9dqdABGp-11" value="" style="endArrow=none;html=1;" parent="aGjMHbDexL6P9dqdABGp-1" edge="1">
          <mxGeometry width="50" height="50" relative="1" as="geometry">
            <mxPoint x="-800" y="159.76" as="sourcePoint" />
            <mxPoint x="-690" y="159.76" as="targetPoint" />
          </mxGeometry>
        </mxCell>
        <mxCell id="aGjMHbDexL6P9dqdABGp-12" value="&lt;font face=&quot;Times New Roman&quot;&gt;&lt;span style=&quot;font-size: 12px&quot;&gt;&lt;i&gt;P&lt;/i&gt;&lt;/span&gt;&lt;sub&gt;&lt;font style=&quot;font-size: 8px&quot;&gt;1&lt;br&gt;228&lt;br&gt;&lt;/font&gt;&lt;/sub&gt;&lt;/font&gt;" style="text;html=1;align=center;verticalAlign=middle;resizable=0;points=[];autosize=1;strokeColor=none;" parent="aGjMHbDexL6P9dqdABGp-1" vertex="1">
          <mxGeometry x="-799" y="91" width="30" height="40" as="geometry" />
        </mxCell>
        <mxCell id="aGjMHbDexL6P9dqdABGp-13" value="" style="endArrow=none;html=1;" parent="aGjMHbDexL6P9dqdABGp-1" edge="1">
          <mxGeometry width="50" height="50" relative="1" as="geometry">
            <mxPoint x="-769" y="80" as="sourcePoint" />
            <mxPoint x="-690" y="80" as="targetPoint" />
          </mxGeometry>
        </mxCell>
        <mxCell id="aGjMHbDexL6P9dqdABGp-14" value="" style="endArrow=none;html=1;" parent="aGjMHbDexL6P9dqdABGp-1" edge="1">
          <mxGeometry width="50" height="50" relative="1" as="geometry">
            <mxPoint x="-769" y="99.75999999999995" as="sourcePoint" />
            <mxPoint x="-690" y="99.75999999999995" as="targetPoint" />
          </mxGeometry>
        </mxCell>
        <mxCell id="aGjMHbDexL6P9dqdABGp-15" value="" style="endArrow=none;html=1;" parent="aGjMHbDexL6P9dqdABGp-1" edge="1">
          <mxGeometry width="50" height="50" relative="1" as="geometry">
            <mxPoint x="-769" y="119.99999999999994" as="sourcePoint" />
            <mxPoint x="-690" y="119.99999999999994" as="targetPoint" />
          </mxGeometry>
        </mxCell>
        <mxCell id="aGjMHbDexL6P9dqdABGp-16" value="&lt;font face=&quot;Times New Roman&quot;&gt;-1&lt;/font&gt;" style="text;html=1;align=center;verticalAlign=middle;resizable=0;points=[];autosize=1;strokeColor=none;" parent="aGjMHbDexL6P9dqdABGp-1" vertex="1">
          <mxGeometry x="-771" y="60" width="30" height="20" as="geometry" />
        </mxCell>
        <mxCell id="aGjMHbDexL6P9dqdABGp-17" value="&lt;font face=&quot;Times New Roman&quot;&gt;-2&lt;/font&gt;" style="text;html=1;align=center;verticalAlign=middle;resizable=0;points=[];autosize=1;strokeColor=none;" parent="aGjMHbDexL6P9dqdABGp-1" vertex="1">
          <mxGeometry x="-771" y="80" width="30" height="20" as="geometry" />
        </mxCell>
        <mxCell id="aGjMHbDexL6P9dqdABGp-18" value="&lt;font face=&quot;Times New Roman&quot;&gt;-3&lt;/font&gt;" style="text;html=1;align=center;verticalAlign=middle;resizable=0;points=[];autosize=1;strokeColor=none;" parent="aGjMHbDexL6P9dqdABGp-1" vertex="1">
          <mxGeometry x="-771" y="100" width="30" height="20" as="geometry" />
        </mxCell>
        <mxCell id="aGjMHbDexL6P9dqdABGp-19" value="&lt;font face=&quot;Times New Roman&quot;&gt;-4&lt;/font&gt;" style="text;html=1;align=center;verticalAlign=middle;resizable=0;points=[];autosize=1;strokeColor=none;" parent="aGjMHbDexL6P9dqdABGp-1" vertex="1">
          <mxGeometry x="-771" y="120" width="30" height="20" as="geometry" />
        </mxCell>
        <mxCell id="aGjMHbDexL6P9dqdABGp-20" value="&lt;font face=&quot;Times New Roman&quot;&gt;2&lt;/font&gt;" style="text;html=1;align=center;verticalAlign=middle;resizable=0;points=[];autosize=1;strokeColor=none;" parent="aGjMHbDexL6P9dqdABGp-1" vertex="1">
          <mxGeometry x="-730" y="60" width="20" height="20" as="geometry" />
        </mxCell>
        <mxCell id="aGjMHbDexL6P9dqdABGp-21" value="&lt;font face=&quot;Times New Roman&quot;&gt;3&lt;/font&gt;" style="text;html=1;align=center;verticalAlign=middle;resizable=0;points=[];autosize=1;strokeColor=none;" parent="aGjMHbDexL6P9dqdABGp-1" vertex="1">
          <mxGeometry x="-730" y="80" width="20" height="20" as="geometry" />
        </mxCell>
        <mxCell id="aGjMHbDexL6P9dqdABGp-22" value="&lt;font face=&quot;Times New Roman&quot;&gt;6&lt;/font&gt;" style="text;html=1;align=center;verticalAlign=middle;resizable=0;points=[];autosize=1;strokeColor=none;" parent="aGjMHbDexL6P9dqdABGp-1" vertex="1">
          <mxGeometry x="-730" y="100" width="20" height="20" as="geometry" />
        </mxCell>
        <mxCell id="aGjMHbDexL6P9dqdABGp-23" value="&lt;font face=&quot;Times New Roman&quot;&gt;63&lt;/font&gt;" style="text;html=1;align=center;verticalAlign=middle;resizable=0;points=[];autosize=1;strokeColor=none;" parent="aGjMHbDexL6P9dqdABGp-1" vertex="1">
          <mxGeometry x="-735" y="120" width="30" height="20" as="geometry" />
        </mxCell>
        <mxCell id="aGjMHbDexL6P9dqdABGp-24" value="" style="endArrow=none;html=1;" parent="aGjMHbDexL6P9dqdABGp-1" edge="1">
          <mxGeometry width="50" height="50" relative="1" as="geometry">
            <mxPoint x="-800" y="200" as="sourcePoint" />
            <mxPoint x="-690" y="200" as="targetPoint" />
          </mxGeometry>
        </mxCell>
        <mxCell id="aGjMHbDexL6P9dqdABGp-25" value="&lt;font style=&quot;font-size: 12px&quot; face=&quot;Times New Roman&quot;&gt;&lt;i&gt;P&lt;/i&gt;&lt;sub&gt;2&lt;br&gt;58&lt;br&gt;&lt;/sub&gt;&lt;/font&gt;" style="text;html=1;align=center;verticalAlign=middle;resizable=0;points=[];autosize=1;strokeColor=none;" parent="aGjMHbDexL6P9dqdABGp-1" vertex="1">
          <mxGeometry x="-801" y="161" width="30" height="40" as="geometry" />
        </mxCell>
        <mxCell id="aGjMHbDexL6P9dqdABGp-26" value="" style="endArrow=none;html=1;" parent="aGjMHbDexL6P9dqdABGp-1" edge="1">
          <mxGeometry width="50" height="50" relative="1" as="geometry">
            <mxPoint x="-769" y="139.51999999999998" as="sourcePoint" />
            <mxPoint x="-690" y="139.51999999999998" as="targetPoint" />
          </mxGeometry>
        </mxCell>
        <mxCell id="aGjMHbDexL6P9dqdABGp-27" value="&lt;font face=&quot;Times New Roman&quot;&gt;-5&lt;/font&gt;" style="text;html=1;align=center;verticalAlign=middle;resizable=0;points=[];autosize=1;strokeColor=none;" parent="aGjMHbDexL6P9dqdABGp-1" vertex="1">
          <mxGeometry x="-771" y="140" width="30" height="20" as="geometry" />
        </mxCell>
        <mxCell id="aGjMHbDexL6P9dqdABGp-28" value="&lt;font face=&quot;Times New Roman&quot;&gt;154&lt;/font&gt;" style="text;html=1;align=center;verticalAlign=middle;resizable=0;points=[];autosize=1;strokeColor=none;" parent="aGjMHbDexL6P9dqdABGp-1" vertex="1">
          <mxGeometry x="-735" y="140" width="30" height="20" as="geometry" />
        </mxCell>
        <mxCell id="aGjMHbDexL6P9dqdABGp-29" value="" style="endArrow=none;html=1;" parent="aGjMHbDexL6P9dqdABGp-1" edge="1">
          <mxGeometry width="50" height="50" relative="1" as="geometry">
            <mxPoint x="-769" y="179.76" as="sourcePoint" />
            <mxPoint x="-690" y="179.76" as="targetPoint" />
          </mxGeometry>
        </mxCell>
        <mxCell id="aGjMHbDexL6P9dqdABGp-30" value="&lt;font face=&quot;Times New Roman&quot;&gt;-6&lt;/font&gt;" style="text;html=1;align=center;verticalAlign=middle;resizable=0;points=[];autosize=1;strokeColor=none;" parent="aGjMHbDexL6P9dqdABGp-1" vertex="1">
          <mxGeometry x="-771" y="160" width="30" height="20" as="geometry" />
        </mxCell>
        <mxCell id="aGjMHbDexL6P9dqdABGp-31" value="&lt;font face=&quot;Times New Roman&quot;&gt;-7&lt;/font&gt;" style="text;html=1;align=center;verticalAlign=middle;resizable=0;points=[];autosize=1;strokeColor=none;" parent="aGjMHbDexL6P9dqdABGp-1" vertex="1">
          <mxGeometry x="-771" y="180" width="30" height="20" as="geometry" />
        </mxCell>
        <mxCell id="aGjMHbDexL6P9dqdABGp-32" value="&lt;font face=&quot;Times New Roman&quot;&gt;38&lt;/font&gt;" style="text;html=1;align=center;verticalAlign=middle;resizable=0;points=[];autosize=1;strokeColor=none;" parent="aGjMHbDexL6P9dqdABGp-1" vertex="1">
          <mxGeometry x="-735" y="160" width="30" height="20" as="geometry" />
        </mxCell>
        <mxCell id="aGjMHbDexL6P9dqdABGp-33" value="&lt;font face=&quot;Times New Roman&quot;&gt;20&lt;/font&gt;" style="text;html=1;align=center;verticalAlign=middle;resizable=0;points=[];autosize=1;strokeColor=none;" parent="aGjMHbDexL6P9dqdABGp-1" vertex="1">
          <mxGeometry x="-735" y="180" width="30" height="20" as="geometry" />
        </mxCell>
        <mxCell id="aGjMHbDexL6P9dqdABGp-34" value="" style="endArrow=none;html=1;" parent="aGjMHbDexL6P9dqdABGp-1" edge="1">
          <mxGeometry width="50" height="50" relative="1" as="geometry">
            <mxPoint x="-800" y="260" as="sourcePoint" />
            <mxPoint x="-690" y="260" as="targetPoint" />
          </mxGeometry>
        </mxCell>
        <mxCell id="aGjMHbDexL6P9dqdABGp-35" value="&lt;font style=&quot;font-size: 12px&quot; face=&quot;Times New Roman&quot;&gt;&lt;i&gt;P&lt;/i&gt;&lt;sub&gt;3&lt;br&gt;14&lt;br&gt;&lt;/sub&gt;&lt;/font&gt;" style="text;html=1;align=center;verticalAlign=middle;resizable=0;points=[];autosize=1;strokeColor=none;" parent="aGjMHbDexL6P9dqdABGp-1" vertex="1">
          <mxGeometry x="-801" y="210" width="30" height="40" as="geometry" />
        </mxCell>
        <mxCell id="aGjMHbDexL6P9dqdABGp-36" value="" style="endArrow=none;html=1;" parent="aGjMHbDexL6P9dqdABGp-1" edge="1">
          <mxGeometry width="50" height="50" relative="1" as="geometry">
            <mxPoint x="-769" y="220" as="sourcePoint" />
            <mxPoint x="-690" y="220" as="targetPoint" />
          </mxGeometry>
        </mxCell>
        <mxCell id="aGjMHbDexL6P9dqdABGp-37" value="" style="endArrow=none;html=1;" parent="aGjMHbDexL6P9dqdABGp-1" edge="1">
          <mxGeometry width="50" height="50" relative="1" as="geometry">
            <mxPoint x="-769" y="240" as="sourcePoint" />
            <mxPoint x="-690" y="240" as="targetPoint" />
          </mxGeometry>
        </mxCell>
        <mxCell id="aGjMHbDexL6P9dqdABGp-38" value="&lt;font face=&quot;Times New Roman&quot;&gt;-8&lt;/font&gt;" style="text;html=1;align=center;verticalAlign=middle;resizable=0;points=[];autosize=1;strokeColor=none;" parent="aGjMHbDexL6P9dqdABGp-1" vertex="1">
          <mxGeometry x="-771" y="200" width="30" height="20" as="geometry" />
        </mxCell>
        <mxCell id="aGjMHbDexL6P9dqdABGp-39" value="&lt;font face=&quot;Times New Roman&quot;&gt;-9&lt;/font&gt;" style="text;html=1;align=center;verticalAlign=middle;resizable=0;points=[];autosize=1;strokeColor=none;" parent="aGjMHbDexL6P9dqdABGp-1" vertex="1">
          <mxGeometry x="-771" y="220" width="30" height="20" as="geometry" />
        </mxCell>
        <mxCell id="aGjMHbDexL6P9dqdABGp-40" value="&lt;font face=&quot;Times New Roman&quot;&gt;-10&lt;/font&gt;" style="text;html=1;align=center;verticalAlign=middle;resizable=0;points=[];autosize=1;strokeColor=none;" parent="aGjMHbDexL6P9dqdABGp-1" vertex="1">
          <mxGeometry x="-771" y="240" width="30" height="20" as="geometry" />
        </mxCell>
        <mxCell id="aGjMHbDexL6P9dqdABGp-41" value="&lt;font face=&quot;Times New Roman&quot;&gt;9&lt;/font&gt;" style="text;html=1;align=center;verticalAlign=middle;resizable=0;points=[];autosize=1;strokeColor=none;" parent="aGjMHbDexL6P9dqdABGp-1" vertex="1">
          <mxGeometry x="-730" y="200" width="20" height="20" as="geometry" />
        </mxCell>
        <mxCell id="aGjMHbDexL6P9dqdABGp-42" value="&lt;font face=&quot;Times New Roman&quot;&gt;3&lt;/font&gt;" style="text;html=1;align=center;verticalAlign=middle;resizable=0;points=[];autosize=1;strokeColor=none;" parent="aGjMHbDexL6P9dqdABGp-1" vertex="1">
          <mxGeometry x="-730" y="220" width="20" height="20" as="geometry" />
        </mxCell>
        <mxCell id="aGjMHbDexL6P9dqdABGp-43" value="&lt;font face=&quot;Times New Roman&quot;&gt;2&lt;/font&gt;" style="text;html=1;align=center;verticalAlign=middle;resizable=0;points=[];autosize=1;strokeColor=none;" parent="aGjMHbDexL6P9dqdABGp-1" vertex="1">
          <mxGeometry x="-730" y="240" width="20" height="20" as="geometry" />
        </mxCell>
        <mxCell id="aGjMHbDexL6P9dqdABGp-44" value="" style="endArrow=none;html=1;" parent="aGjMHbDexL6P9dqdABGp-1" edge="1">
          <mxGeometry width="50" height="50" relative="1" as="geometry">
            <mxPoint x="-639" y="69.3" as="sourcePoint" />
            <mxPoint x="-529" y="69.3" as="targetPoint" />
          </mxGeometry>
        </mxCell>
        <mxCell id="aGjMHbDexL6P9dqdABGp-45" value="" style="endArrow=none;html=1;" parent="aGjMHbDexL6P9dqdABGp-1" edge="1">
          <mxGeometry width="50" height="50" relative="1" as="geometry">
            <mxPoint x="-639" y="90.3" as="sourcePoint" />
            <mxPoint x="-529" y="90.3" as="targetPoint" />
          </mxGeometry>
        </mxCell>
        <mxCell id="aGjMHbDexL6P9dqdABGp-46" value="" style="endArrow=none;html=1;exitX=0.075;exitY=1.064;exitDx=0;exitDy=0;exitPerimeter=0;" parent="aGjMHbDexL6P9dqdABGp-1" source="aGjMHbDexL6P9dqdABGp-67" edge="1">
          <mxGeometry width="50" height="50" relative="1" as="geometry">
            <mxPoint x="-608" y="289.29999999999995" as="sourcePoint" />
            <mxPoint x="-608" y="69.3" as="targetPoint" />
          </mxGeometry>
        </mxCell>
        <mxCell id="aGjMHbDexL6P9dqdABGp-47" value="" style="endArrow=none;html=1;exitX=1.013;exitY=1.064;exitDx=0;exitDy=0;exitPerimeter=0;" parent="aGjMHbDexL6P9dqdABGp-1" source="aGjMHbDexL6P9dqdABGp-67" edge="1">
          <mxGeometry width="50" height="50" relative="1" as="geometry">
            <mxPoint x="-580.48" y="290.02" as="sourcePoint" />
            <mxPoint x="-581" y="69.3" as="targetPoint" />
          </mxGeometry>
        </mxCell>
        <mxCell id="aGjMHbDexL6P9dqdABGp-48" value="&lt;font style=&quot;font-size: 12px&quot; face=&quot;Times New Roman&quot;&gt;ID&lt;/font&gt;" style="text;html=1;align=center;verticalAlign=middle;resizable=0;points=[];autosize=1;strokeColor=none;" parent="aGjMHbDexL6P9dqdABGp-1" vertex="1">
          <mxGeometry x="-638" y="70.3" width="30" height="20" as="geometry" />
        </mxCell>
        <mxCell id="aGjMHbDexL6P9dqdABGp-49" value="&lt;font style=&quot;font-size: 14px&quot; face=&quot;Times New Roman&quot;&gt;&lt;i&gt;v&lt;/i&gt;&lt;/font&gt;" style="text;html=1;align=center;verticalAlign=middle;resizable=0;points=[];autosize=1;strokeColor=none;" parent="aGjMHbDexL6P9dqdABGp-1" vertex="1">
          <mxGeometry x="-605" y="70.3" width="20" height="20" as="geometry" />
        </mxCell>
        <mxCell id="aGjMHbDexL6P9dqdABGp-50" value="&lt;font style=&quot;font-size: 14px&quot; face=&quot;Times New Roman&quot;&gt;count&lt;/font&gt;" style="text;html=1;align=center;verticalAlign=middle;resizable=0;points=[];autosize=1;strokeColor=none;" parent="aGjMHbDexL6P9dqdABGp-1" vertex="1">
          <mxGeometry x="-580" y="70.3" width="50" height="20" as="geometry" />
        </mxCell>
        <mxCell id="aGjMHbDexL6P9dqdABGp-51" value="&lt;font style=&quot;font-size: 12px&quot; face=&quot;Times New Roman&quot;&gt;&lt;i&gt;P&lt;/i&gt;&lt;/font&gt;&lt;font style=&quot;font-size: 6px&quot; face=&quot;Times New Roman&quot;&gt;&lt;sub&gt;1&lt;/sub&gt;&lt;/font&gt;" style="text;html=1;align=center;verticalAlign=middle;resizable=0;points=[];autosize=1;strokeColor=none;" parent="aGjMHbDexL6P9dqdABGp-1" vertex="1">
          <mxGeometry x="-638" y="99.3" width="30" height="20" as="geometry" />
        </mxCell>
        <mxCell id="aGjMHbDexL6P9dqdABGp-52" value="" style="endArrow=none;html=1;" parent="aGjMHbDexL6P9dqdABGp-1" edge="1">
          <mxGeometry width="50" height="50" relative="1" as="geometry">
            <mxPoint x="-608" y="109.3" as="sourcePoint" />
            <mxPoint x="-529" y="109.3" as="targetPoint" />
          </mxGeometry>
        </mxCell>
        <mxCell id="aGjMHbDexL6P9dqdABGp-53" value="&lt;font face=&quot;Times New Roman&quot;&gt;-5&lt;/font&gt;" style="text;html=1;align=center;verticalAlign=middle;resizable=0;points=[];autosize=1;strokeColor=none;" parent="aGjMHbDexL6P9dqdABGp-1" vertex="1">
          <mxGeometry x="-610" y="89.3" width="30" height="20" as="geometry" />
        </mxCell>
        <mxCell id="aGjMHbDexL6P9dqdABGp-54" value="&lt;font face=&quot;Times New Roman&quot;&gt;-6&lt;/font&gt;" style="text;html=1;align=center;verticalAlign=middle;resizable=0;points=[];autosize=1;strokeColor=none;" parent="aGjMHbDexL6P9dqdABGp-1" vertex="1">
          <mxGeometry x="-610" y="109.3" width="30" height="20" as="geometry" />
        </mxCell>
        <mxCell id="aGjMHbDexL6P9dqdABGp-55" value="&lt;font face=&quot;Times New Roman&quot;&gt;-7&lt;/font&gt;" style="text;html=1;align=center;verticalAlign=middle;resizable=0;points=[];autosize=1;strokeColor=none;" parent="aGjMHbDexL6P9dqdABGp-1" vertex="1">
          <mxGeometry x="-610" y="129.30000000000004" width="30" height="20" as="geometry" />
        </mxCell>
        <mxCell id="aGjMHbDexL6P9dqdABGp-56" value="&lt;font face=&quot;Times New Roman&quot;&gt;-8&lt;/font&gt;" style="text;html=1;align=center;verticalAlign=middle;resizable=0;points=[];autosize=1;strokeColor=none;" parent="aGjMHbDexL6P9dqdABGp-1" vertex="1">
          <mxGeometry x="-610" y="149.30000000000004" width="30" height="20" as="geometry" />
        </mxCell>
        <mxCell id="aGjMHbDexL6P9dqdABGp-57" value="&lt;font face=&quot;Times New Roman&quot;&gt;165&lt;/font&gt;" style="text;html=1;align=center;verticalAlign=middle;resizable=0;points=[];autosize=1;strokeColor=none;" parent="aGjMHbDexL6P9dqdABGp-1" vertex="1">
          <mxGeometry x="-574" y="89.3" width="30" height="20" as="geometry" />
        </mxCell>
        <mxCell id="aGjMHbDexL6P9dqdABGp-58" value="&lt;font face=&quot;Times New Roman&quot;&gt;63&lt;/font&gt;" style="text;html=1;align=center;verticalAlign=middle;resizable=0;points=[];autosize=1;strokeColor=none;" parent="aGjMHbDexL6P9dqdABGp-1" vertex="1">
          <mxGeometry x="-574" y="109.3" width="30" height="20" as="geometry" />
        </mxCell>
        <mxCell id="aGjMHbDexL6P9dqdABGp-59" value="&lt;font face=&quot;Times New Roman&quot;&gt;51&lt;/font&gt;" style="text;html=1;align=center;verticalAlign=middle;resizable=0;points=[];autosize=1;strokeColor=none;" parent="aGjMHbDexL6P9dqdABGp-1" vertex="1">
          <mxGeometry x="-574" y="129.30000000000004" width="30" height="20" as="geometry" />
        </mxCell>
        <mxCell id="aGjMHbDexL6P9dqdABGp-60" value="&lt;font face=&quot;Times New Roman&quot;&gt;16&lt;/font&gt;" style="text;html=1;align=center;verticalAlign=middle;resizable=0;points=[];autosize=1;strokeColor=none;" parent="aGjMHbDexL6P9dqdABGp-1" vertex="1">
          <mxGeometry x="-574" y="149.30000000000004" width="30" height="20" as="geometry" />
        </mxCell>
        <mxCell id="aGjMHbDexL6P9dqdABGp-61" value="" style="endArrow=none;html=1;" parent="aGjMHbDexL6P9dqdABGp-1" edge="1">
          <mxGeometry width="50" height="50" relative="1" as="geometry">
            <mxPoint x="-638" y="230.3" as="sourcePoint" />
            <mxPoint x="-528" y="230.3" as="targetPoint" />
          </mxGeometry>
        </mxCell>
        <mxCell id="aGjMHbDexL6P9dqdABGp-62" value="&lt;font face=&quot;Times New Roman&quot;&gt;&lt;i&gt;P&lt;/i&gt;&lt;span style=&quot;font-size: 10px&quot;&gt;&lt;sub&gt;4&lt;/sub&gt;&lt;/span&gt;&lt;/font&gt;" style="text;html=1;align=center;verticalAlign=middle;resizable=0;points=[];autosize=1;strokeColor=none;" parent="aGjMHbDexL6P9dqdABGp-1" vertex="1">
          <mxGeometry x="-640" y="189.3" width="30" height="20" as="geometry" />
        </mxCell>
        <mxCell id="aGjMHbDexL6P9dqdABGp-63" value="&lt;font face=&quot;Times New Roman&quot;&gt;-9&lt;/font&gt;" style="text;html=1;align=center;verticalAlign=middle;resizable=0;points=[];autosize=1;strokeColor=none;" parent="aGjMHbDexL6P9dqdABGp-1" vertex="1">
          <mxGeometry x="-610" y="169.3" width="30" height="20" as="geometry" />
        </mxCell>
        <mxCell id="aGjMHbDexL6P9dqdABGp-64" value="&lt;font face=&quot;Times New Roman&quot;&gt;2&lt;/font&gt;" style="text;html=1;align=center;verticalAlign=middle;resizable=0;points=[];autosize=1;strokeColor=none;" parent="aGjMHbDexL6P9dqdABGp-1" vertex="1">
          <mxGeometry x="-569" y="169.3" width="20" height="20" as="geometry" />
        </mxCell>
        <mxCell id="aGjMHbDexL6P9dqdABGp-65" value="" style="endArrow=none;html=1;" parent="aGjMHbDexL6P9dqdABGp-1" edge="1">
          <mxGeometry width="50" height="50" relative="1" as="geometry">
            <mxPoint x="-607" y="209.06" as="sourcePoint" />
            <mxPoint x="-528" y="209.06" as="targetPoint" />
          </mxGeometry>
        </mxCell>
        <mxCell id="aGjMHbDexL6P9dqdABGp-66" value="&lt;font face=&quot;Times New Roman&quot;&gt;-10&lt;/font&gt;" style="text;html=1;align=center;verticalAlign=middle;resizable=0;points=[];autosize=1;strokeColor=none;" parent="aGjMHbDexL6P9dqdABGp-1" vertex="1">
          <mxGeometry x="-610" y="189.3" width="30" height="20" as="geometry" />
        </mxCell>
        <mxCell id="aGjMHbDexL6P9dqdABGp-67" value="&lt;font face=&quot;Times New Roman&quot;&gt;-11&lt;/font&gt;" style="text;html=1;align=center;verticalAlign=middle;resizable=0;points=[];autosize=1;strokeColor=none;" parent="aGjMHbDexL6P9dqdABGp-1" vertex="1">
          <mxGeometry x="-610" y="209.3" width="30" height="20" as="geometry" />
        </mxCell>
        <mxCell id="aGjMHbDexL6P9dqdABGp-68" value="&lt;font face=&quot;Times New Roman&quot;&gt;3&lt;/font&gt;" style="text;html=1;align=center;verticalAlign=middle;resizable=0;points=[];autosize=1;strokeColor=none;" parent="aGjMHbDexL6P9dqdABGp-1" vertex="1">
          <mxGeometry x="-569" y="189.3" width="20" height="20" as="geometry" />
        </mxCell>
        <mxCell id="aGjMHbDexL6P9dqdABGp-69" value="&lt;font face=&quot;Times New Roman&quot;&gt;2&lt;/font&gt;" style="text;html=1;align=center;verticalAlign=middle;resizable=0;points=[];autosize=1;strokeColor=none;" parent="aGjMHbDexL6P9dqdABGp-1" vertex="1">
          <mxGeometry x="-569" y="209.3" width="20" height="20" as="geometry" />
        </mxCell>
        <mxCell id="aGjMHbDexL6P9dqdABGp-70" value="&lt;font style=&quot;font-size: 12px&quot; face=&quot;Times New Roman&quot;&gt;&lt;i&gt;P&lt;/i&gt;&lt;sub&gt;3&lt;/sub&gt;&lt;/font&gt;" style="text;html=1;align=center;verticalAlign=middle;resizable=0;points=[];autosize=1;strokeColor=none;" parent="aGjMHbDexL6P9dqdABGp-1" vertex="1">
          <mxGeometry x="-640" y="149.30000000000004" width="30" height="20" as="geometry" />
        </mxCell>
        <mxCell id="aGjMHbDexL6P9dqdABGp-71" value="" style="endArrow=none;html=1;" parent="aGjMHbDexL6P9dqdABGp-1" edge="1">
          <mxGeometry width="50" height="50" relative="1" as="geometry">
            <mxPoint x="-639" y="129.29999999999998" as="sourcePoint" />
            <mxPoint x="-529" y="129.29999999999998" as="targetPoint" />
          </mxGeometry>
        </mxCell>
        <mxCell id="aGjMHbDexL6P9dqdABGp-72" value="&lt;font style=&quot;font-size: 12px&quot; face=&quot;Times New Roman&quot;&gt;&lt;i&gt;P&lt;/i&gt;&lt;sub&gt;2&lt;/sub&gt;&lt;/font&gt;" style="text;html=1;align=center;verticalAlign=middle;resizable=0;points=[];autosize=1;strokeColor=none;" parent="aGjMHbDexL6P9dqdABGp-1" vertex="1">
          <mxGeometry x="-640" y="129.30000000000004" width="30" height="20" as="geometry" />
        </mxCell>
        <mxCell id="aGjMHbDexL6P9dqdABGp-73" value="" style="endArrow=none;html=1;" parent="aGjMHbDexL6P9dqdABGp-1" edge="1">
          <mxGeometry width="50" height="50" relative="1" as="geometry">
            <mxPoint x="-639" y="149.30000000000004" as="sourcePoint" />
            <mxPoint x="-529" y="149.30000000000004" as="targetPoint" />
          </mxGeometry>
        </mxCell>
        <mxCell id="aGjMHbDexL6P9dqdABGp-74" value="" style="endArrow=none;html=1;" parent="aGjMHbDexL6P9dqdABGp-1" edge="1">
          <mxGeometry width="50" height="50" relative="1" as="geometry">
            <mxPoint x="-639" y="169.3" as="sourcePoint" />
            <mxPoint x="-529" y="169.3" as="targetPoint" />
          </mxGeometry>
        </mxCell>
        <mxCell id="aGjMHbDexL6P9dqdABGp-75" value="" style="endArrow=none;html=1;" parent="aGjMHbDexL6P9dqdABGp-1" edge="1">
          <mxGeometry width="50" height="50" relative="1" as="geometry">
            <mxPoint x="-608" y="189.3" as="sourcePoint" />
            <mxPoint x="-529" y="189.3" as="targetPoint" />
          </mxGeometry>
        </mxCell>
        <mxCell id="aGjMHbDexL6P9dqdABGp-76" value="" style="endArrow=none;html=1;exitX=1.013;exitY=1.064;exitDx=0;exitDy=0;exitPerimeter=0;" parent="aGjMHbDexL6P9dqdABGp-1" edge="1">
          <mxGeometry width="50" height="50" relative="1" as="geometry">
            <mxPoint x="-527.6099999999999" y="230.57999999999998" as="sourcePoint" />
            <mxPoint x="-529" y="69.3" as="targetPoint" />
          </mxGeometry>
        </mxCell>
        <mxCell id="aGjMHbDexL6P9dqdABGp-77" value="" style="endArrow=none;html=1;exitX=1.013;exitY=1.064;exitDx=0;exitDy=0;exitPerimeter=0;" parent="aGjMHbDexL6P9dqdABGp-1" edge="1">
          <mxGeometry width="50" height="50" relative="1" as="geometry">
            <mxPoint x="-637.9999999999999" y="230.29999999999998" as="sourcePoint" />
            <mxPoint x="-639.39" y="69.02" as="targetPoint" />
          </mxGeometry>
        </mxCell>
        <mxCell id="aGjMHbDexL6P9dqdABGp-78" value="" style="endArrow=classic;html=1;fillColor=#FF0000;strokeColor=#FF0000;" parent="aGjMHbDexL6P9dqdABGp-1" edge="1">
          <mxGeometry width="50" height="50" relative="1" as="geometry">
            <mxPoint x="-529" y="121" as="sourcePoint" />
            <mxPoint x="-480" y="90" as="targetPoint" />
          </mxGeometry>
        </mxCell>
        <mxCell id="aGjMHbDexL6P9dqdABGp-79" value="" style="endArrow=classic;html=1;strokeColor=#FF0000;" parent="aGjMHbDexL6P9dqdABGp-1" edge="1">
          <mxGeometry width="50" height="50" relative="1" as="geometry">
            <mxPoint x="-528" y="140.3" as="sourcePoint" />
            <mxPoint x="-480" y="180" as="targetPoint" />
          </mxGeometry>
        </mxCell>
        <mxCell id="aGjMHbDexL6P9dqdABGp-80" value="" style="endArrow=none;html=1;strokeColor=#000000;fillColor=#FF0000;" parent="aGjMHbDexL6P9dqdABGp-1" edge="1">
          <mxGeometry width="50" height="50" relative="1" as="geometry">
            <mxPoint x="-463.16" y="50.3" as="sourcePoint" />
            <mxPoint x="-353.16" y="50.3" as="targetPoint" />
          </mxGeometry>
        </mxCell>
        <mxCell id="aGjMHbDexL6P9dqdABGp-81" value="" style="endArrow=none;html=1;strokeColor=#000000;fillColor=#FF0000;" parent="aGjMHbDexL6P9dqdABGp-1" edge="1">
          <mxGeometry width="50" height="50" relative="1" as="geometry">
            <mxPoint x="-463.16" y="138.12" as="sourcePoint" />
            <mxPoint x="-353.16" y="138.12" as="targetPoint" />
          </mxGeometry>
        </mxCell>
        <mxCell id="aGjMHbDexL6P9dqdABGp-82" value="" style="endArrow=none;html=1;strokeColor=#000000;fillColor=#FF0000;" parent="aGjMHbDexL6P9dqdABGp-1" edge="1">
          <mxGeometry width="50" height="50" relative="1" as="geometry">
            <mxPoint x="-453.16" y="39.3" as="sourcePoint" />
            <mxPoint x="-453.16" y="149.3" as="targetPoint" />
          </mxGeometry>
        </mxCell>
        <mxCell id="aGjMHbDexL6P9dqdABGp-83" value="" style="endArrow=none;html=1;strokeColor=#000000;fillColor=#FF0000;" parent="aGjMHbDexL6P9dqdABGp-1" edge="1">
          <mxGeometry width="50" height="50" relative="1" as="geometry">
            <mxPoint x="-363.16" y="39.3" as="sourcePoint" />
            <mxPoint x="-363.16" y="149.3" as="targetPoint" />
          </mxGeometry>
        </mxCell>
        <mxCell id="aGjMHbDexL6P9dqdABGp-84" value="" style="shape=waypoint;sketch=0;fillStyle=solid;size=6;pointerEvents=1;points=[];fillColor=none;resizable=0;rotatable=0;perimeter=centerPerimeter;snapToPoint=1;strokeColor=#00FF00;" parent="aGjMHbDexL6P9dqdABGp-1" vertex="1">
          <mxGeometry x="-423.16" y="74.3" width="40" height="40" as="geometry" />
        </mxCell>
        <mxCell id="aGjMHbDexL6P9dqdABGp-85" value="" style="ellipse;whiteSpace=wrap;html=1;aspect=fixed;strokeColor=#0000FF;" parent="aGjMHbDexL6P9dqdABGp-1" vertex="1">
          <mxGeometry x="-453.16" y="50.3" width="90" height="88" as="geometry" />
        </mxCell>
        <mxCell id="aGjMHbDexL6P9dqdABGp-86" value="" style="endArrow=none;html=1;strokeColor=#000000;fillColor=#FF0000;" parent="aGjMHbDexL6P9dqdABGp-1" edge="1">
          <mxGeometry width="50" height="50" relative="1" as="geometry">
            <mxPoint x="-463.16" y="79.06" as="sourcePoint" />
            <mxPoint x="-353.16" y="79.06" as="targetPoint" />
          </mxGeometry>
        </mxCell>
        <mxCell id="aGjMHbDexL6P9dqdABGp-87" value="" style="endArrow=none;html=1;strokeColor=#000000;fillColor=#FF0000;" parent="aGjMHbDexL6P9dqdABGp-1" edge="1">
          <mxGeometry width="50" height="50" relative="1" as="geometry">
            <mxPoint x="-463.16" y="108.3" as="sourcePoint" />
            <mxPoint x="-353.16" y="108.3" as="targetPoint" />
          </mxGeometry>
        </mxCell>
        <mxCell id="aGjMHbDexL6P9dqdABGp-88" value="" style="endArrow=none;html=1;strokeColor=#000000;fillColor=#FF0000;" parent="aGjMHbDexL6P9dqdABGp-1" edge="1">
          <mxGeometry width="50" height="50" relative="1" as="geometry">
            <mxPoint x="-423.16" y="39.3" as="sourcePoint" />
            <mxPoint x="-423.16" y="149.3" as="targetPoint" />
          </mxGeometry>
        </mxCell>
        <mxCell id="aGjMHbDexL6P9dqdABGp-89" value="" style="endArrow=none;html=1;strokeColor=#000000;fillColor=#FF0000;" parent="aGjMHbDexL6P9dqdABGp-1" edge="1">
          <mxGeometry width="50" height="50" relative="1" as="geometry">
            <mxPoint x="-393.16" y="39.3" as="sourcePoint" />
            <mxPoint x="-393.16" y="149.3" as="targetPoint" />
          </mxGeometry>
        </mxCell>
        <mxCell id="aGjMHbDexL6P9dqdABGp-90" value="" style="shape=waypoint;sketch=0;fillStyle=solid;size=6;pointerEvents=1;points=[];fillColor=none;resizable=0;rotatable=0;perimeter=centerPerimeter;snapToPoint=1;strokeColor=#009900;" parent="aGjMHbDexL6P9dqdABGp-1" vertex="1">
          <mxGeometry x="-423.16" y="79.6" width="40" height="40" as="geometry" />
        </mxCell>
        <mxCell id="aGjMHbDexL6P9dqdABGp-91" value="" style="endArrow=none;html=1;strokeColor=#000000;fillColor=#FF0000;" parent="aGjMHbDexL6P9dqdABGp-1" edge="1">
          <mxGeometry width="50" height="50" relative="1" as="geometry">
            <mxPoint x="-448" y="172.7" as="sourcePoint" />
            <mxPoint x="-368" y="172.7" as="targetPoint" />
          </mxGeometry>
        </mxCell>
        <mxCell id="aGjMHbDexL6P9dqdABGp-92" value="" style="endArrow=none;html=1;strokeColor=#000000;fillColor=#FF0000;" parent="aGjMHbDexL6P9dqdABGp-1" edge="1">
          <mxGeometry width="50" height="50" relative="1" as="geometry">
            <mxPoint x="-438" y="161.7" as="sourcePoint" />
            <mxPoint x="-438" y="241.7" as="targetPoint" />
          </mxGeometry>
        </mxCell>
        <mxCell id="aGjMHbDexL6P9dqdABGp-93" value="" style="shape=waypoint;sketch=0;fillStyle=solid;size=6;pointerEvents=1;points=[];fillColor=none;resizable=0;rotatable=0;perimeter=centerPerimeter;snapToPoint=1;strokeColor=#00FF00;" parent="aGjMHbDexL6P9dqdABGp-1" vertex="1">
          <mxGeometry x="-408" y="196.7" width="40" height="40" as="geometry" />
        </mxCell>
        <mxCell id="aGjMHbDexL6P9dqdABGp-94" value="" style="ellipse;whiteSpace=wrap;html=1;aspect=fixed;strokeColor=#7F00FF;" parent="aGjMHbDexL6P9dqdABGp-1" vertex="1">
          <mxGeometry x="-438" y="172.7" width="59.68" height="59" as="geometry" />
        </mxCell>
        <mxCell id="aGjMHbDexL6P9dqdABGp-95" value="" style="endArrow=none;html=1;strokeColor=#000000;fillColor=#FF0000;" parent="aGjMHbDexL6P9dqdABGp-1" edge="1">
          <mxGeometry width="50" height="50" relative="1" as="geometry">
            <mxPoint x="-448" y="192.45999999999998" as="sourcePoint" />
            <mxPoint x="-368" y="192.7" as="targetPoint" />
          </mxGeometry>
        </mxCell>
        <mxCell id="aGjMHbDexL6P9dqdABGp-96" value="" style="endArrow=none;html=1;strokeColor=#000000;fillColor=#FF0000;" parent="aGjMHbDexL6P9dqdABGp-1" edge="1">
          <mxGeometry width="50" height="50" relative="1" as="geometry">
            <mxPoint x="-448" y="212.7" as="sourcePoint" />
            <mxPoint x="-368" y="212.7" as="targetPoint" />
          </mxGeometry>
        </mxCell>
        <mxCell id="aGjMHbDexL6P9dqdABGp-97" value="" style="endArrow=none;html=1;strokeColor=#000000;fillColor=#FF0000;" parent="aGjMHbDexL6P9dqdABGp-1" edge="1">
          <mxGeometry width="50" height="50" relative="1" as="geometry">
            <mxPoint x="-418" y="161" as="sourcePoint" />
            <mxPoint x="-418" y="241.7" as="targetPoint" />
          </mxGeometry>
        </mxCell>
        <mxCell id="aGjMHbDexL6P9dqdABGp-98" value="" style="endArrow=none;html=1;strokeColor=#000000;fillColor=#FF0000;" parent="aGjMHbDexL6P9dqdABGp-1" edge="1">
          <mxGeometry width="50" height="50" relative="1" as="geometry">
            <mxPoint x="-398" y="161.7" as="sourcePoint" />
            <mxPoint x="-398" y="241.7" as="targetPoint" />
          </mxGeometry>
        </mxCell>
        <mxCell id="aGjMHbDexL6P9dqdABGp-99" value="" style="shape=waypoint;sketch=0;fillStyle=solid;size=6;pointerEvents=1;points=[];fillColor=none;resizable=0;rotatable=0;perimeter=centerPerimeter;snapToPoint=1;strokeColor=#009900;" parent="aGjMHbDexL6P9dqdABGp-1" vertex="1">
          <mxGeometry x="-423" y="182.2" width="40" height="40" as="geometry" />
        </mxCell>
        <mxCell id="aGjMHbDexL6P9dqdABGp-100" value="" style="endArrow=none;html=1;strokeColor=#000000;fillColor=#FF0000;" parent="aGjMHbDexL6P9dqdABGp-1" edge="1">
          <mxGeometry width="50" height="50" relative="1" as="geometry">
            <mxPoint x="-448" y="231.69999999999993" as="sourcePoint" />
            <mxPoint x="-368" y="231.7" as="targetPoint" />
          </mxGeometry>
        </mxCell>
        <mxCell id="aGjMHbDexL6P9dqdABGp-101" value="" style="endArrow=none;html=1;strokeColor=#000000;fillColor=#FF0000;" parent="aGjMHbDexL6P9dqdABGp-1" edge="1">
          <mxGeometry width="50" height="50" relative="1" as="geometry">
            <mxPoint x="-378" y="161" as="sourcePoint" />
            <mxPoint x="-378" y="241.7" as="targetPoint" />
          </mxGeometry>
        </mxCell>
      </root>
    </mxGraphModel>
  </diagram>
</mxfile>
